<svg xmlns="http://www.w3.org/2000/svg" width="329.321" height="77.781" viewBox="0 0 329.321 77.781"><g transform="translate(-161.337 -12.214)"><g transform="translate(161.337 15.542)"><path d="M198.564,16a37.227,37.227,0,1,0,37.227,37.227A37.227,37.227,0,0,0,198.564,16Zm3.851,57.5a4.985,4.985,0,0,0-7.244-2.269,63.676,63.676,0,0,1-7.056-6.988,86.457,86.457,0,0,1-5.375-7.17,4.979,4.979,0,0,0,.932-5.508,63.9,63.9,0,0,1,8.1-6.044,84.854,84.854,0,0,1,10.037-5.21,4.98,4.98,0,0,0,7.364.194C224.19,49.738,230.052,59.79,231.387,62.4a33.885,33.885,0,0,1-1.24,3.634C218.743,72.1,206.6,73.275,202.415,73.5Zm-29.11-43.146c11.688-.259,22.208,3.457,27.4,5.673a4.98,4.98,0,0,0-.106,1.025c0,.158.009.315.023.469a72.883,72.883,0,0,0-8.388,4.26,77.416,77.416,0,0,0-10.605,7.533,4.961,4.961,0,0,0-2.49-.668,5.025,5.025,0,0,0-1.225.152,52.183,52.183,0,0,1-5.518-17.395Q172.839,30.874,173.305,30.357Zm3.673,27.77a4.959,4.959,0,0,0,2.159.49,5.05,5.05,0,0,0,.921-.086c1.275,1.921,2.7,3.87,4.293,5.822a77.427,77.427,0,0,0,8.545,8.919A65.733,65.733,0,0,1,170.06,67.5,60.03,60.03,0,0,1,176.978,58.127Zm55.294.09a68.64,68.64,0,0,0-21.759-20.442,5.007,5.007,0,0,0,.05-.633c8.945-2.585,15.094-2.331,16.76-2.193a33.914,33.914,0,0,1,5.313,18.278A34.337,34.337,0,0,1,232.272,58.216ZM225.2,31.979a62.9,62.9,0,0,0-15.45,2.344,4.98,4.98,0,0,0-7.592-.888,70.063,70.063,0,0,0-25.629-6.2,34.069,34.069,0,0,1,48.671,4.74Zm-55.22,2.7a65.537,65.537,0,0,0,5.4,15.685,4.98,4.98,0,0,0-.643,5.61,58.208,58.208,0,0,0-7.452,10.08c-.133-.076-.262-.149-.385-.221a34.129,34.129,0,0,1,3.081-31.154Zm-.913,35.614a66.628,66.628,0,0,0,23.857,6.048,4.982,4.982,0,0,0,7.919,3.079,60.624,60.624,0,0,0,10.174,5.535,34.112,34.112,0,0,1-41.95-14.661Zm45.863,12.827a58.9,58.9,0,0,1-12.323-6.259c.04-.137.076-.276.1-.417a69.816,69.816,0,0,0,25.032-5.612A34.243,34.243,0,0,1,214.929,83.118Z" transform="translate(-161.337 -16)" fill="#fff"/></g><text transform="translate(276.658 63.214)" fill="#fff" font-size="39" font-family="Cairo-Bold, Cairo" font-weight="700"><tspan x="0" y="0">GCAIoT 2021</tspan></text></g></svg>