<svg xmlns="http://www.w3.org/2000/svg" width="211.386" height="60.917" viewBox="0 0 211.386 60.917"><g transform="translate(-1659.635 -5635.926)"><path d="M1871.021,5689.856h-35.372v-45.967h35.372v8.982h-22.462v9.593h20.52v8.964h-20.564v9.446h22.506Z" fill="#494949"/><path d="M1785.3,5644.1v8.715h-22.313v9.51h20.494v8.964h-20.505v9.673H1785.3v8.883H1750.08V5644.1Z" fill="#494949"/><path d="M1792.871,5644.094H1828v8.731h-22.227v9.507h20.507v8.968h-20.517v9.671H1828.1v8.879h-35.234Z" fill="#494949"/><path d="M1743,5644.073v45.759h-12.713v-45.759Z" fill="#494949"/><path d="M1722.86,5667.36a18.735,18.735,0,0,0-2.371,1.161,111.956,111.956,0,0,0-27.089,26.036c-2.292,3.056-3.05,3.043-5.225-.006a109.4,109.4,0,0,0-25.855-25.432c-3.544-2.531-3.582-3.222-.1-5.628a114.973,114.973,0,0,0,25.8-25.134c2.495-3.261,3.26-3.214,5.638-.025a112.714,112.714,0,0,0,26.164,25.5,24.6,24.6,0,0,1,2.546,2.339Zm-31.771,21.837a14.132,14.132,0,0,0,3.179-1.732c5.872-5.541,11.74-11.093,17.421-16.828,1.517-1.533,3.317-3.589,1.588-6.075a76.213,76.213,0,0,0-19.658-19.688c-1.164-.793-3.718-.971-4.805-.228a84.3,84.3,0,0,0-20.073,19.306,3.69,3.69,0,0,0,0,4.84,86.256,86.256,0,0,0,19.6,19.057A19.255,19.255,0,0,0,1691.089,5689.2Z" fill="#494949"/><path d="M1699.347,5692.684l3.231-2.292c.3.9,1.08,2,.8,2.644C1702.663,5694.69,1701.237,5694.293,1699.347,5692.684Z" fill="#494949"/><path d="M1691.008,5645.107a17.739,17.739,0,0,1,2.742,1.4,84.384,84.384,0,0,1,17.571,17.339c1.34,1.8,1.486,3.391.062,5.229a89.221,89.221,0,0,1-17.863,17.423,3.793,3.793,0,0,1-5.047-.011,97.178,97.178,0,0,1-18.08-17.6,3.6,3.6,0,0,1-.024-5,87.839,87.839,0,0,1,18.6-17.79A14.93,14.93,0,0,1,1691.008,5645.107Zm5.507,16.522-.722,1.222c.726.41,1.462.8,2.176,1.236a13.661,13.661,0,0,1,2.853,1.92,3.242,3.242,0,0,1-1.278,2.136,20.478,20.478,0,0,1-16.362.142c-1.805-.745-1.729-2.123-.194-3.205a25,25,0,0,1,3.213-1.656c-2.367-2.137-3.692-2.11-6.9.082-2.687,1.84-2.719,4.226.337,5.25a37.554,37.554,0,0,0,11.23,2.163,31.044,31.044,0,0,0,10.185-2.055c2.4-.824,2.58-2.764.678-4.218A44.376,44.376,0,0,0,1696.515,5661.629Zm-4.421,7.456c0-3.252,0-6.2,0-9.158l2.289-.455-3.584-9.416-3.376,9.589c2.114-.223,2.356.809,2.2,2.381-.228,2.318-.252,4.655-.366,7.059Zm.794,12.012-.534-9.18h-3.1l-.522,9.18Z" fill="#494949"/></g></svg>