<svg xmlns="http://www.w3.org/2000/svg" width="328.725" height="94.67" viewBox="0 0 328.725 94.67"><g transform="translate(-795.359 -5405.098)"><path d="M970.73,5424.617a26.241,26.241,0,0,1,2.907-.328q8.548-.044,17.1,0c4.573.03,6.444,1.655,7.3,6.194q2.219,11.807,4.446,23.611c.088.467.251.921.615,2.23,2.259-5.632,4.209-10.466,6.136-15.309,1.909-4.8,3.874-9.573,5.651-14.418a3.051,3.051,0,0,1,3.485-2.323c3.345.135,6.7.038,10.486.038-.48,1.383-.763,2.367-1.155,3.305-5.859,13.995-11.783,27.963-17.549,42-.9,2.2-2.017,3.134-4.411,2.925-3.336-.29-7.564.874-9.792-.773-2.076-1.534-2.092-5.917-2.914-9.072-2.392-9.175-4.815-18.342-7.052-27.555a7.994,7.994,0,0,0-5.572-6.258q-4.857-1.606-9.716-3.208Z" fill="#494949"/><path d="M1044.854,5470.742c.75-3.568,1.437-6.835,2.185-10.4,2.444.748,4.663,1.785,6.972,2.048a34.5,34.5,0,0,0,9.359-.041,5.208,5.208,0,0,0,3.535-3.335c.211-1.28-1.143-3.272-2.371-4.233-2.134-1.668-4.75-2.705-7.079-4.144-10.333-6.385-10.026-18.6.778-24.2,7.817-4.052,15.978-3.822,24.438-.769-.694,3.339-1.35,6.5-2.03,9.769a72.84,72.84,0,0,0-9.047-1.616,14.356,14.356,0,0,0-6.4,1.131c-2.731,1.2-2.878,3.665-.447,5.435a64.074,64.074,0,0,0,7.036,4.227c5.353,2.925,9.225,6.8,8.592,13.465-.637,6.709-4.54,11-10.655,13.264C1061.454,5474.418,1053.238,5473.658,1044.854,5470.742Z" fill="#494949"/><path d="M1046.743,5424.314c-2.02,9.56-3.929,18.606-5.845,27.65-1.2,5.663-2.5,11.306-3.572,16.993-.478,2.544-1.325,3.922-4.278,3.609a89.8,89.8,0,0,0-9.154-.068c1.421-6.691,2.768-13.043,4.119-19.394,1.839-8.648,3.726-17.286,5.489-25.949.423-2.078,1.186-3.074,3.519-2.9C1040.047,5424.488,1043.1,5424.314,1046.743,5424.314Z" fill="#494949"/><path d="M1123.885,5470.2q-3.885-18.546-7.811-37.083c-.608-2.855-.52-6.752-2.33-8.207-1.831-1.472-5.622-.453-8.548-.629-3.77-.226-6.078,1.435-7.517,4.934-5.523,13.436-11.186,26.814-16.785,40.219-.373.9-.648,1.831-1.078,3.058,3.9,0,7.265-.091,10.627.037,1.794.068,2.622-.677,3.242-2.269,1.908-4.9,1.96-4.881,7.262-4.876.843,0,1.688-.031,2.53.006,2.508.112,5.457-.5,7.373.631,1.369.808,1.352,3.966,2,6.254h11.23A19.8,19.8,0,0,0,1123.885,5470.2Zm-24.76-15.051,5.905-16.324.6-.033,3.415,16.357Z" fill="#494949"/><path d="M917.052,5445.929c-.313,1.71-.559,3.437-.951,5.13a37.69,37.69,0,0,1-57.489,23.039c9.576-8.32,14.783-18.7,14.782-31.358,0-12.624-5.173-22.982-14.839-31.4,1.661-.913,3.208-1.875,4.844-2.645a37.68,37.68,0,0,1,53.1,27.567q.277,1.578.551,3.157Z" fill="#494949"/><path d="M914.3,5499.768a1.989,1.989,0,0,1-.2-.708,2.705,2.705,0,0,1,.367-1.211,1.1,1.1,0,0,1,.951.211,2.972,2.972,0,0,1,.143,1.308c0,.133-.171.266-.264.4Z" fill="#494949"/><path d="M853.718,5411.453a40.6,40.6,0,0,0-.083,62.512c-10.475,7.931-30.854,10.145-45.8-3.221a37.666,37.666,0,0,1-3.5-52.4C818.083,5402.329,840.092,5401.933,853.718,5411.453Z" fill="#494949"/><path d="M856.087,5472.258c-7.641-6.239-12.494-14.14-13.823-23.894-1.872-13.745,2.562-25.268,12.993-34.464.693-.611,1.126-.669,1.861-.031,8.75,7.587,13.4,17.153,13.441,28.727.046,11.626-4.57,21.256-13.327,28.9-.251.219-.517.422-.782.625A1.958,1.958,0,0,1,856.087,5472.258Z" fill="#494949"/><path d="M810.352,5490.29a7.338,7.338,0,0,1,.785-.66,4.008,4.008,0,0,1,6.34,2.783c.2,2.222.039,4.478.039,6.786h-2.174c0-1.36.012-2.72-.005-4.079a15.912,15.912,0,0,0-.121-2.118,2,2,0,0,0-2.168-1.95,2.26,2.26,0,0,0-2.267,2.222c-.073,1.582-.021,3.17-.031,4.756,0,.37-.035.739-.056,1.171h-2.2c0-1.4.009-2.805,0-4.206-.006-.624-.024-1.252-.091-1.872-.147-1.348-.865-2.053-2.057-2.072a2.187,2.187,0,0,0-2.339,1.985c-.146,1.446-.078,2.914-.1,4.372-.008.575,0,1.151,0,1.79h-2.161v-9.918c.806.128,1.858-.741,2.157.475a11.716,11.716,0,0,1,3.261-.695A11.874,11.874,0,0,1,810.352,5490.29Z" fill="#494949"/><path d="M908.923,5489.987v-4.7h2.246v14.1l-2.538-.468c-2.488,1.079-4.97.8-6.585-1.119a5.711,5.711,0,0,1-.07-7.058C903.564,5488.769,905.941,5488.468,908.923,5489.987Zm.115,4.285a3.007,3.007,0,0,0-2.914-3.224,3.085,3.085,0,0,0-3.048,3.139,3.033,3.033,0,0,0,2.961,3.193A2.925,2.925,0,0,0,909.038,5494.272Z" fill="#494949"/><path d="M827.238,5498.914c-2.572,1.1-5,.8-6.659-1.208a5.7,5.7,0,0,1,.068-7.046,4.757,4.757,0,0,1,6.231-.983l2.816-.622v10.316Zm.416-4.617a3.022,3.022,0,0,0-2.9-3.247,3.065,3.065,0,0,0-3.065,3.11,3.029,3.029,0,0,0,2.93,3.219A2.94,2.94,0,0,0,827.654,5494.3Z" fill="#494949"/><path d="M888.668,5490.058c.388-1.512,1.463-.594,2.278-.853v10.049c-.823-.222-1.915.685-2.27-.811-2.585,1.577-5.152,1.315-6.821-.695a5.733,5.733,0,0,1,.19-7.242C883.733,5488.673,886.309,5488.477,888.668,5490.058Zm-2.763,7.323a3.047,3.047,0,0,0,3.048-3.117,3.116,3.116,0,0,0-2.976-3.215,3.044,3.044,0,0,0-3.016,3.144A2.992,2.992,0,0,0,885.905,5497.381Z" fill="#494949"/><path d="M861.326,5495.07h-7.054c.07,2.451,2.569,3.083,5.666,1.412l1.006,1.487a5.893,5.893,0,0,1-7.271.544,5.715,5.715,0,0,1-1.361-6.925,4.853,4.853,0,0,1,5.951-2.377C860.53,5489.952,861.752,5492.209,861.326,5495.07Zm-2.278-1.834c-.334-1.593-1.124-2.294-2.442-2.264a2.3,2.3,0,0,0-2.36,2.264Z" fill="#494949"/><path d="M831.786,5498.212l1.008-1.632a16.737,16.737,0,0,0,2.224.768,5.058,5.058,0,0,0,2.092.037c.481-.113.869-.626,1.3-.961-.4-.339-.757-.827-1.223-.985-.778-.264-1.639-.272-2.445-.469a2.916,2.916,0,0,1-2.533-2.826,2.975,2.975,0,0,1,2.435-2.931,7.765,7.765,0,0,1,5.889.781l-.884,1.675c-1.015-.235-1.96-.523-2.927-.651a3.081,3.081,0,0,0-1.559.266,1.139,1.139,0,0,0-.505.876c0,.218.361.575.621.642.841.219,1.713.316,2.568.489,2.024.409,2.936,1.431,2.875,3.141a2.682,2.682,0,0,1-1.768,2.5A7.541,7.541,0,0,1,831.786,5498.212Z" fill="#494949"/><path d="M849.811,5496.941l.627,1.774a4.815,4.815,0,0,1-4.652.407c-1.41-.651-1.6-2.017-1.6-3.408v-4.433h-1.916v-2l1.876-.145V5486.3h2.249v2.847h3.5v2.066h-3.422c0,1.73-.052,3.342.02,4.95.042.924.728,1.271,1.591,1.174A16.313,16.313,0,0,0,849.811,5496.941Z" fill="#494949"/><path d="M878.6,5496.552l.961,1.627a5.372,5.372,0,1,1,.019-7.945l-.967,1.665c-1.882-.914-3.761-1.533-5.2.6a3.377,3.377,0,0,0,.359,3.95C874.854,5497.607,876.266,5497.654,878.6,5496.552Z" fill="#494949"/><path d="M896.178,5490.11a3.5,3.5,0,0,1,4.036-.861l-.623,1.94a4.722,4.722,0,0,1-.655,0c-1.9-.3-2.837.472-2.87,2.424-.03,1.828-.006,3.656-.006,5.571h-2.184v-9.945C894.692,5489.443,895.731,5488.577,896.178,5490.11Z" fill="#494949"/><path d="M865.928,5499.235h-2.159v-9.928c.791-.012,1.68-.5,2.39.542a3.51,3.51,0,0,1,3.884-.544l-.658,1.953c-.288-.038-.527-.065-.765-.1-1.688-.262-2.646.5-2.683,2.233C865.9,5495.3,865.928,5497.208,865.928,5499.235Z" fill="#494949"/><path d="M915.76,5464.6v1.14h-1.494v-1.368l.89.971.344-.922Z" fill="#494949"/></g></svg>