<svg xmlns="http://www.w3.org/2000/svg" viewBox="0 0 4342.78 999.13"><defs><style>.cls-1{fill:#fff;}.cls-2{isolation:isolate;}</style></defs><g id="Layer_2" data-name="Layer 2"><g id="Layer_1-2" data-name="Layer 1"><g id="Group_21" data-name="Group 21"><g id="Group_20" data-name="Group 20"><path id="Path_171" data-name="Path 171" class="cls-1" d="M499.57,0C223.66,0,0,223.66,0,499.57S223.66,999.13,499.57,999.13,999.13,775.47,999.13,499.57,775.47,0,499.57,0Zm51.68,771.62a66.91,66.91,0,0,0-87.73-35.41,67.93,67.93,0,0,0-9.49,5,854.58,854.58,0,0,1-94.68-93.77,1160.07,1160.07,0,0,1-72.13-96.22,66.82,66.82,0,0,0,12.5-73.92,858.33,858.33,0,0,1,108.7-81.1,1138.69,1138.69,0,0,1,134.69-69.92,66.84,66.84,0,0,0,94.26,6.94c1.59-1.38,3.11-2.82,4.56-4.34C843.46,452.75,922.12,587.64,940,622.66a455.54,455.54,0,0,1-16.65,48.77C770.36,752.83,607.41,768.6,551.25,771.62Zm-390.65-579c156.85-3.47,298,46.39,367.7,76.13a66.34,66.34,0,0,0-1.42,13.76c0,2.12.12,4.22.3,6.29A977.94,977.94,0,0,0,414.62,346,1038.55,1038.55,0,0,0,272.31,447.06a66.59,66.59,0,0,0-33.42-9,67.55,67.55,0,0,0-16.44,2,700.23,700.23,0,0,1-74-233.43q5.94-7.09,12.19-14Zm49.29,372.66a66.54,66.54,0,0,0,29,6.58,67.53,67.53,0,0,0,12.36-1.16c17.11,25.78,36.23,51.94,57.61,78.13A1038.39,1038.39,0,0,0,423.51,768.52,881.87,881.87,0,0,1,117.06,691.1a805.7,805.7,0,0,1,92.83-125.78Zm742,1.21a921,921,0,0,0-292-274.32,69.05,69.05,0,0,0,.67-8.5c120-34.68,202.55-31.28,224.91-29.42a455.17,455.17,0,0,1,71.3,245.28,460.67,460.67,0,0,1-4.89,67ZM857,214.43a843.88,843.88,0,0,0-207.33,31.46,66.83,66.83,0,0,0-92.52-19.33A67.58,67.58,0,0,0,547.8,234a940.17,940.17,0,0,0-343.93-83.2c192.57-163.32,481.07-139.6,644.39,53q4.46,5.25,8.75,10.64ZM116,250.66a880,880,0,0,0,72.47,210.49,66.83,66.83,0,0,0-8.63,75.28,781,781,0,0,0-100,135.27c-1.79-1-3.52-2-5.17-3A458,458,0,0,1,116,250.66ZM103.73,728.58a894.17,894.17,0,0,0,320.15,81.17,66.84,66.84,0,0,0,106.27,41.31,813.21,813.21,0,0,0,136.53,74.28c-210.49,82.41-449.61-1.17-562.95-196.74ZM719.19,900.72a790.51,790.51,0,0,1-165.37-84,48.87,48.87,0,0,0,1.34-5.59,937,937,0,0,0,335.92-75.31,459.5,459.5,0,0,1-171.9,164.87Z"/></g><g id="GCAIoT_2021" data-name="GCAIoT 2021" class="cls-2"><g class="cls-2"><path class="cls-1" d="M1630,664.43q-31.67-19.35-45.27-59.66T1571.1,498q0-65.42,14.13-105.45t45.28-58.62q31.13-18.58,83.47-18.59,48.68,0,105.2,11L1838,330l-2.1,56q-60.72-6.81-102.57-6.82-41.36,0-60.19,13.88t-23.29,37.68q-4.45,23.82-4.45,70.92,0,46.57,6.28,71.7t22.77,36.36Q1690.94,621,1723.4,621q30.87,0,43.44-2.1V549.82h-32.45V487H1838V671.76q-76.43,12-121.42,12Q1661.64,683.79,1630,664.43Z"/><path class="cls-1" d="M1944.78,663.91Q1914.42,644,1903.17,605t-11.25-103.88q0-71.19,12.3-111t41.08-57.31q28.79-17.53,80.6-17.54,47.61,0,106.24,14.14l-2.09,57.57q-51.83-7.86-84.27-7.86-33,0-49.71,10.47T1972.77,424q-6.54,23.82-6.53,67.25v19.36q1,45,6.53,67.25T1994.5,610q16.21,9.94,49.72,9.94,35.58,0,85.83-7.32l1.56,59.14q-57,12-100,12Q1975.13,683.79,1944.78,663.91Z"/><path class="cls-1" d="M2371.32,613.14H2246.76l-14.13,64.37H2160.4l80.08-355.88H2377.6l80.07,355.88h-72.22ZM2321.6,381.29h-25.12l-36.12,169.05h97.35Z"/><path class="cls-1" d="M2505.29,321.63h72.23V677.51h-72.23Z"/><path class="cls-1" d="M2662.56,648q-30.61-35.87-30.62-101.8,0-65.41,30.62-101t89.76-35.58q59.13,0,89.75,35.58t30.62,101q0,66-30.62,101.8t-89.75,35.84Q2693.16,683.79,2662.56,648Zm126.92-42.13q12-18.33,12-59.67t-12-59.14q-12.06-17.79-37.16-17.8T2715.16,487q-12,17.81-12,59.14t12,59.67q12,18.31,37.16,18.32T2789.48,605.82Z"/><path class="cls-1" d="M2956.43,385.48h-95.26V321.63h261.68v63.85h-94.2v292h-72.22Z"/><path class="cls-1" d="M3278.8,616.27l73.8-74.83q28.77-29.84,42.91-46.58T3416.18,464a71.38,71.38,0,0,0,6.54-30.35q0-23.55-12.3-33.76t-36.89-10.21q-34.55,0-76.41,6.28l-12.56,1.57-3.67-56a360.81,360.81,0,0,1,106.24-15.69q109.9,0,109.91,98.91,0,26.19-7.06,46.31t-23.55,40.83q-16.5,20.67-46.85,48.41l-60.18,54.43h143.4v62.8h-224Z"/><path class="cls-1" d="M3583.39,640.1q-33-42.66-33-136.35t33-136.33q33-42.65,101-42.65t101,42.65q33,42.66,33,136.33t-33,136.35q-33,42.66-101,42.64T3583.39,640.1ZM3719,608.69q13.07-11.25,19.1-36.63t6-68.31q0-42.9-6-68.29T3719,398.82q-13.1-11.24-34.55-11.25t-34.54,11.25q-13.08,11.26-19.1,36.64t-6,68.29q0,42.94,6,68.31t19.1,36.63q13.08,11.26,34.54,11.25T3719,608.69Z"/><path class="cls-1" d="M3865,616.27l73.8-74.83q28.75-29.84,42.91-46.58T4002.34,464a71.38,71.38,0,0,0,6.54-30.35q0-23.55-12.3-33.76t-36.89-10.21q-34.55,0-76.41,6.28l-12.57,1.57-3.66-56a360.81,360.81,0,0,1,106.24-15.69q109.9,0,109.91,98.91,0,26.19-7.06,46.31t-23.55,40.83q-16.5,20.67-46.85,48.41l-60.18,54.43H4089v62.8H3865Z"/><path class="cls-1" d="M4270.56,413.74l-74.84,48.14-33-53.9,114.09-75.89h65.94V677.51h-72.22Z"/></g></g></g></g></g></svg>