<svg xmlns="http://www.w3.org/2000/svg" width="140.234" height="140.234" viewBox="0 0 140.234 140.234"><path d="M108.576,1494.024a9.906,9.906,0,0,0-1.427.109,12.146,12.146,0,0,0-1.52.326l1.861-8.282H122.38v-8.033H101.008l-5.521,25.343,7.073,1.582a10.169,10.169,0,0,1,2.714-2.141,6.056,6.056,0,0,1,2.807-.713,5.964,5.964,0,0,1,4.544,2.032,8.1,8.1,0,0,1-.14,10.531,6.569,6.569,0,0,1-4.9,2.078,6.9,6.9,0,0,1-3.8-1.1,7.829,7.829,0,0,1-2.776-3.241h-9.12a15.279,15.279,0,0,0,15.51,12.407,15,15,0,0,0,11.058-4.576A15.337,15.337,0,0,0,123,1509.1a14.92,14.92,0,0,0-4.11-10.841A13.779,13.779,0,0,0,108.576,1494.024Z" transform="translate(-79.394 -1431.201)" fill="#fff"/><path d="M207.722,1450a70.134,70.134,0,1,0-114.185,76.872q.918.918,1.863,1.8.447.417.9.825,1.363,1.225,2.784,2.373a70.055,70.055,0,0,0,88.06,0q1.42-1.147,2.784-2.373.454-.408.9-.825.947-.881,1.863-1.8A70.185,70.185,0,0,0,207.722,1450Zm-64.605,92.591a64.98,64.98,0,0,1-40.258-13.921,65.166,65.166,0,0,1,80.517,0A64.98,64.98,0,0,1,143.117,1542.593Zm44.03-17.121a70.057,70.057,0,0,0-88.06,0,65.3,65.3,0,1,1,88.06,0Z" transform="translate(-73 -1407.178)" fill="#fff"/><path d="M180.176,1443.142a44.91,44.91,0,0,1,34.091,18.7l4.448-2.094a50.129,50.129,0,0,0-21.648-17.626,49.294,49.294,0,0,0-19.3-3.9v.033q-1.21,0-2.41.057v4.826q1.2-.063,2.412-.064T180.176,1443.142Z" transform="translate(-107.65 -1417.688)" fill="#fff"/><path d="M243.514,1479.653a49.544,49.544,0,0,0-4.887-8.89l-4.447,2.093a44.684,44.684,0,0,1,7.767,18.487q.208,1.193.349,2.41h4.854q-.129-1.21-.314-2.41A49.224,49.224,0,0,0,243.514,1479.653Z" transform="translate(-127.563 -1428.703)" fill="#fff"/><path d="M208.957,1469.78h0a39.813,39.813,0,0,0-3.506-4.019,38.851,38.851,0,0,0-25.275-11.393q-1.2-.073-2.406-.073t-2.412.073v4.831q1.2-.085,2.412-.085.585,0,1.166.02l.158.007q.507.019,1.009.054l.27.019c.179.014.357.027.534.043.242.023.484.047.725.074l.346.042c.194.024.388.049.58.076l.264.037a34.142,34.142,0,0,1,21.58,12.436l.067-.032a34.235,34.235,0,0,1,6.763,13.877q.272,1.189.462,2.41h4.874q-.162-1.215-.4-2.41A38.7,38.7,0,0,0,208.957,1469.78Z" transform="translate(-107.65 -1423.128)" fill="#fff"/><path d="M237.9,1477.1a60.375,60.375,0,0,0-60.13-54.894h-2.409v4.871q1.2-.053,2.412-.052c.806,0,1.609.017,2.406.051h0l.054,0a.466.466,0,0,1,.054,0c.036,0,.073,0,.108,0l.137.006c.165.007.329.016.491.027.1,0,.194.01.29.017.165.009.33.02.493.032.222.015.444.032.666.051s.443.036.663.058.441.043.66.066c.441.045.879.1,1.316.155.218.028.435.057.653.089q1.306.184,2.59.429c.185.034.37.069.552.107.1.019.2.039.3.061.117.023.232.047.348.073.08.016.159.032.238.051q.191.039.381.084c.08.016.159.033.238.054.136.029.27.059.4.093.05.01.1.022.149.036q.6.141,1.195.3c.191.049.382.1.572.155.244.066.486.134.729.2.15.044.3.087.451.133l.149.045q.453.136.9.28c.3.1.6.194.895.3.2.067.4.138.606.209q.605.212,1.2.439.3.112.6.231.593.23,1.18.478l.007,0c.194.081.388.163.581.248s.387.167.58.255c0,0,0,0,.006,0,.192.085.384.171.575.262s.384.177.575.268.383.181.573.274.38.186.568.283.377.19.564.288.351.18.525.275q.3.155.593.319.555.3,1.1.615l0,0q.822.473,1.623.974.3.182.591.374c.157.1.314.2.47.306.177.114.35.229.524.347s.349.234.521.355.345.236.516.359.318.225.476.339c.024.016.048.034.071.053.327.236.653.476.974.722.168.124.334.253.5.382s.33.256.493.387c.327.26.653.525.974.793s.622.521.927.789l.03.026c.157.136.315.275.47.415s.311.277.466.421.308.282.461.426.306.285.456.431.3.288.451.435.3.293.447.443.3.295.441.445.294.3.437.452c.105.108.209.218.312.327s.182.194.271.292.208.222.31.336c.083.092.168.184.25.278s.148.163.219.245c.112.124.224.251.333.378q.208.237.411.476c.137.159.271.319.405.48q.58.7,1.138,1.415c.1.133.206.266.308.4q.387.506.762,1.024c.117.159.232.319.346.48s.23.324.342.486.226.325.337.491.213.315.318.474a.354.354,0,0,1,.028.042l.026.041-.226.106.227-.106c.1.144.191.288.284.434s.187.289.279.434c.038.059.076.119.114.181.082.129.163.261.244.393.1.162.2.324.3.488l.053.089c.089.147.177.3.264.445q.152.257.3.517.423.74.827,1.495.3.57.6,1.151.134.265.263.53c.087.18.175.361.261.542s.172.363.255.545.168.365.251.549.163.366.243.552q.237.539.46,1.084c.009.024.019.047.028.07q.107.261.21.522t.2.5c.025.063.048.126.071.19q.085.219.167.438c.071.191.142.38.21.572q.515,1.43.954,2.9c.107.352.209.707.307,1.063q.1.356.193.715.061.229.12.461c.017.067.033.134.051.2.036.146.071.292.108.438.041.169.082.341.121.513.025.1.048.208.071.313l.1.452c0,.016.006.032.01.048.038.179.076.359.114.539.009.047.019.094.028.14.036.173.071.347.1.521.041.2.079.409.116.613s.074.412.109.618.066.391.1.588q.1.635.189,1.277c.109.8.2,1.6.277,2.41h4.838Z" transform="translate(-107.65 -1412.265)" fill="#fff"/><path d="M190.588,1499.011H166.1v7.443h16.076a16.487,16.487,0,1,1-.66-13.425l.081.16h7.9l-.131-.386a23.826,23.826,0,1,0-22.559,31.5,23.572,23.572,0,0,0,14.786-5.143,23.771,23.771,0,0,0,9.037-18.68c0-.386-.01-.787-.03-1.191Z" transform="translate(-96.691 -1430.698)" fill="#fff"/></svg>