<svg xmlns="http://www.w3.org/2000/svg" width="133.524" height="138.082" viewBox="0 0 133.524 138.082"><path d="M62.25,135.18,50.395,118.86l4.609-1.5-4.609,1.495h0L31.208,125.09a4.609,4.609,0,0,1-6.032-4.386l0-20.172L7.953,94.93a5.551,5.551,0,1,1-2.4-10.555q.1,0,.19,0l9.809-13.5L3.7,54.556A4.609,4.609,0,0,1,6,47.465l15.247-4.952c0-.055,0-.11,0-.165a5.411,5.411,0,0,1,3.944-5.208L25.2,21.062a4.611,4.611,0,0,1,6.034-4.384l19.174,6.235h0l9.8-13.493a6.479,6.479,0,1,1,11.552-.008l9.816,13.509,19.184-6.232a4.608,4.608,0,0,1,6.035,4.384l0,20.172,19.182,6.237a4.608,4.608,0,0,1,2.305,7.093L116.428,70.9l-2.848,3.92-3.392,4.668a4.6,4.6,0,0,1-3.008,1.844,4.684,4.684,0,0,1-.721.056,4.623,4.623,0,0,1-2.711-.88l-9.3-6.76,2.761-2.006-2.761,2.006h0l-6.085,4.419,2.323,7.153H85.838l-1.86-5.729a4.607,4.607,0,0,1,1.673-5.154l4.874-3.539-4.872-3.542A4.607,4.607,0,0,1,83.979,62.2l1.862-5.73H79.818a4.612,4.612,0,0,1-4.386-3.185l-1.862-5.727L68.7,51.1a4.617,4.617,0,0,1-5.419,0L58.411,47.56l1.5-4.608-1.5,4.608-3.92-2.848,3.92,2.849-1.86,5.721a4.61,4.61,0,0,1-4.384,3.184l-6.025,0L48,62.194a4.609,4.609,0,0,1-1.675,5.153l-4.875,3.539,4.873,3.542A4.611,4.611,0,0,1,48,79.582L46.135,85.31l6.024,0A4.611,4.611,0,0,1,56.543,88.5l1.859,5.73h0l4.873-3.539a4.606,4.606,0,0,1,5.417,0l4.875,3.541-1.5,4.61,1.5-4.61L75.43,88.5a4.61,4.61,0,0,1,4.385-3.184h10.87l11.5,0a4.609,4.609,0,0,1,4.608,4.609l0,5.768L121.249,91a5.7,5.7,0,0,1,.927-4.347l-8.6-11.836,2.848-3.92L126.14,84.27a5.748,5.748,0,0,1,.695-.042,5.689,5.689,0,1,1-2.717,10.688l-17.325,5.628,0,20.173a4.611,4.611,0,0,1-6.035,4.384l-19.184-6.234-11.86,16.315a4.608,4.608,0,0,1-7.459,0ZM59.9,98.836l3.551,10.939a4.608,4.608,0,0,1-2.96,5.808l-5.486,1.783,10.974,15.107,10.98-15.1-5.486-1.781a4.613,4.613,0,0,1-2.96-5.811l3.555-10.936-6.084-4.421Zm24.519,16.108,17.759,5.773,0-18.674L96.7,103.825a4.608,4.608,0,0,1-5.809-2.961L87.335,89.926H79.814l-2.326,7.153,5.665,4.116a5.207,5.207,0,0,1,4.4,9.439ZM29.785,120.7l17.759-5.766-3.389-4.666a4.61,4.61,0,0,1,1.02-6.439l9.305-6.758h0l-2.323-7.152-7.523,0h0L41.08,100.857a4.6,4.6,0,0,1-4.384,3.184,4.537,4.537,0,0,1-1.426-.227l-5.484-1.783Zm51.784-1.838h0l2.85-3.923-4.609-1.5,2.4-3.3a5.215,5.215,0,0,1-1.993-5.385l-4.227-3.071,1.5-4.61-1.5,4.609h0L72.9,111.2l6.913,2.247h0l4.609,1.5ZM55,117.365Zm0,0-2.848-3.923,6.912-2.244-3.09-9.514-8.094,5.877,4.271,5.881-4.609,1.5,4.609-1.495ZM95.272,99.44l6.91-2.245,0-7.268h-10ZM29.787,97.184l6.91,2.247,3.093-9.514-10,0Zm-4.609-1.5V89.915a4.611,4.611,0,0,1,4.609-4.609l11.5,0,2.325-7.153-6.085-4.424-9.306,6.758a4.605,4.605,0,0,1-2.708.879,4.556,4.556,0,0,1-.723-.056,4.607,4.607,0,0,1-3.007-1.845L18.4,74.8,15.55,70.879,17.2,68.61l-1.651,2.27L18.4,74.8,9.906,86.486a5.563,5.563,0,0,1,1.076,4.583ZM98.369,70.894l8.091,5.88,4.271-5.88-4.269-5.879ZM25.515,76.761l8.094-5.876L25.518,65l-4.271,5.878-1.424-1.96,1.423,1.961h0Zm12.014-3.028h0l1.65-1.2Zm3.922-2.847h0l-3.92-2.85Zm-7.842,0,3.922-2.85-3.922,2.85Zm54.754-7.263,6.086,4.421,9.3-6.758a4.608,4.608,0,0,1,2.709-.88,4.538,4.538,0,0,1,.721.056,4.619,4.619,0,0,1,3.008,1.844l3.39,4.666,10.974-15.106L106.8,46.094v3.839a4.345,4.345,0,1,1-5.721,6.538H90.688ZM28.228,61.274l9.3,6.761,6.087-4.418L41.3,56.463h0l-11.5,0a4.607,4.607,0,0,1-4.609-4.608v-4.3a5.391,5.391,0,0,1-1.794-.892L7.429,51.848,18.4,66.96h0l3.39-4.665A4.6,4.6,0,0,1,24.8,60.45a4.53,4.53,0,0,1,.72-.056A4.61,4.61,0,0,1,28.228,61.274Zm63.957-9.412H99.9a4.358,4.358,0,0,1,2.287-2.538V44.6l-6.912-2.247Zm-4.845,0,3.553-10.938a4.612,4.612,0,0,1,5.808-2.96l5.487,1.783,0-18.672L84.425,26.841l3.391,4.667a4.611,4.611,0,0,1-1.018,6.44l-9.306,6.759h0l2.326,7.153h7.52Zm-35.173,0,2.324-7.145-9.309-6.764a4.61,4.61,0,0,1-1.02-6.44l3.4-4.675L29.807,21.064,29.8,37.949a5.437,5.437,0,0,1,1.326,1.357l4.16-1.351a4.608,4.608,0,0,1,5.807,2.96l3.552,10.939Zm-22.372-.006,10,0L36.71,42.338l-4.88,1.585A5.418,5.418,0,0,1,29.8,46.751Zm43.776-4.294h0l1.162-.844ZM55.015,24.411l5.5,1.787a4.608,4.608,0,0,1,2.958,5.809L59.91,42.952l6.079,4.414,6.085-4.42L68.519,32.009A4.61,4.61,0,0,1,71.48,26.2l5.487-1.781-8.645-11.9a6.5,6.5,0,0,1-4.67,0ZM102.188,44.6l4.61,1.5-4.609-1.5V39.747h0ZM54.491,44.711ZM59.91,42.952ZM79.816,28.339h0L72.9,30.584,76,40.1l.894,2.752L76,40.1l8.093-5.88-4.273-5.879,1.129-.368Zm-27.65-.006h0L47.889,34.22l8.1,5.884,3.1-9.522-6.92-2.249,2.849-3.922Zm32.259-1.491h0l-2.848-3.919Zm-6.259-.773-1.2-1.649h0ZM84.419,114.944ZM18.4,74.8Z" transform="translate(0.5 0.5)" fill="#fff" stroke="rgba(0,0,0,0)" stroke-miterlimit="10" stroke-width="1"/></svg>