<svg xmlns="http://www.w3.org/2000/svg" width="146.349" height="146.349" viewBox="0 0 146.349 146.349">
  <path id="Path_125" data-name="Path 125" d="M208.636,2659.533a73.174,73.174,0,1,0,73.174,73.175A73.175,73.175,0,0,0,208.636,2659.533Zm7.57,113.031a9.8,9.8,0,0,0-14.238-4.461,125.058,125.058,0,0,1-13.871-13.738,169.806,169.806,0,0,1-10.565-14.094,9.788,9.788,0,0,0,1.831-10.827,125.662,125.662,0,0,1,15.927-11.882,166.885,166.885,0,0,1,19.73-10.241,9.787,9.787,0,0,0,14.474.381c29.512,18.146,41.036,37.9,43.661,43.031a66.572,66.572,0,0,1-2.438,7.144C248.3,2769.805,224.437,2772.116,216.207,2772.564Zm-57.219-84.809c22.974-.511,43.653,6.794,53.856,11.149a9.839,9.839,0,0,0-.209,2.015c0,.312.016.619.045.923a143.1,143.1,0,0,0-16.489,8.374,152.085,152.085,0,0,0-20.846,14.808,9.8,9.8,0,0,0-7.3-1.013c-8.271-16.588-10.333-29.21-10.846-34.191Q158.072,2688.769,158.988,2687.755Zm7.219,54.585a9.785,9.785,0,0,0,6.055.794c2.5,3.777,5.3,7.607,8.437,11.444a152.264,152.264,0,0,0,16.8,17.534c-20.8-1.717-35.744-7.01-44.885-11.357A118.04,118.04,0,0,1,166.207,2742.34Zm108.69.177a134.931,134.931,0,0,0-42.771-40.183,9.87,9.87,0,0,0,.1-1.242c17.583-5.082,29.67-4.582,32.945-4.311a66.658,66.658,0,0,1,10.444,35.927A67.588,67.588,0,0,1,274.9,2742.516Zm-13.9-51.575a123.79,123.79,0,0,0-30.369,4.608,9.791,9.791,0,0,0-14.924-1.744c-21.839-9.709-40.45-11.836-50.377-12.18a66.969,66.969,0,0,1,95.67,9.316Zm-108.543,5.3a128.731,128.731,0,0,0,10.612,30.832,9.788,9.788,0,0,0-1.264,11.028,114.357,114.357,0,0,0-14.649,19.815q-.392-.223-.756-.436a67.078,67.078,0,0,1,6.056-61.239Zm-1.8,70c9.191,4.4,25.167,10.315,46.895,11.889a9.794,9.794,0,0,0,15.567,6.052,119.206,119.206,0,0,0,20,10.879,67.048,67.048,0,0,1-82.459-28.82Zm90.151,25.215a115.739,115.739,0,0,1-24.221-12.3c.079-.269.149-.542.2-.82,23.092-1.123,39.775-6.812,49.2-11.031A67.3,67.3,0,0,1,240.806,2791.464Z" transform="translate(-135.462 -2659.533)" fill="#fff"/>
</svg>
