<svg xmlns="http://www.w3.org/2000/svg" width="140.869" height="140.869" viewBox="0 0 140.869 140.869"><path d="M683.858,2668.618a70.445,70.445,0,0,0-69.194,83.6q.454,2.391,1.067,4.725a70.692,70.692,0,0,0,50.85,50.393l.366.131.014-.039a70.443,70.443,0,0,0,86.863-60.273c.094-.813.177-1.631.242-2.453q.223-2.8.227-5.654A70.514,70.514,0,0,0,683.858,2668.618Zm-64.31,70.435a64.308,64.308,0,0,1,128.614-.429c-11.658-11.427-18.553-14.492-18.877-14.632l-1.471-.635-1.361.846a143.718,143.718,0,0,0-19.192,14.338,175.333,175.333,0,0,0-15.57-17.876c-13.188-13.164-23.334-18.884-23.76-19.121l-1.56-.869-1.525.93c-21.572,13.161-37.315,32.336-45.051,43.042C619.635,2742.8,619.549,2740.938,619.549,2739.053Zm1.624,14.387c4.872-7.341,21.407-30.5,45.287-45.627a127.72,127.72,0,0,1,21.093,17.373,169.644,169.644,0,0,1,15.177,17.512,173.435,173.435,0,0,0-25.8,31.448,167.077,167.077,0,0,0-13.706,25.82A64.563,64.563,0,0,1,621.172,2753.44Zm62.686,49.922a64.259,64.259,0,0,1-14.7-1.7,171.988,171.988,0,0,1,37.212-53.978,194.728,194.728,0,0,1,21.034,38.642A64.066,64.066,0,0,1,683.858,2803.362Zm48.2-21.792a200.08,200.08,0,0,0-21.16-38.083,138.389,138.389,0,0,1,17.313-13.154c2.732,1.572,9.493,6.05,19.476,16.537A64.069,64.069,0,0,1,732.063,2781.57Z" transform="translate(-613.424 -2668.618)" fill="#fff"/></svg>