<svg xmlns="http://www.w3.org/2000/svg" width="143.214" height="139.24" viewBox="0 0 143.214 139.24"><path d="M1209.76,2687.632a62.324,62.324,0,0,0-10.025-3.874,67.528,67.528,0,1,0-2.56,119.766,61.975,61.975,0,0,0,12.585-115.892Zm-96.8,21.646a56.034,56.034,0,0,1,69.7-27.96,62.249,62.249,0,0,0-29.889,7.619,62.044,62.044,0,0,0-45.512,45.286A55.792,55.792,0,0,1,1112.963,2709.278Zm29.836,90.208a56.047,56.047,0,0,1-13.066-8.853l-.052.043c-.429-.419-.84-.841-1.249-1.263a62.556,62.556,0,0,1-8.843-11.551,61.171,61.171,0,0,1-7.246-18.391c-.32-1.51-.523-2.78-.649-3.744-.174-1.335-.206-2.094-.206-2.094l.076.011a56.079,56.079,0,0,1,23.568-50.29q-.273.326-.544.654a55.024,55.024,0,0,1,20-9.273c.118-.068.238-.133.356-.2a56.021,56.021,0,0,1,63.962,32.531c.021.169.044.337.064.506a59.423,59.423,0,0,1,4.437,19.245q.051.95.068,1.921a49.409,49.409,0,0,1-.868,10.145,56.134,56.134,0,0,1-27.6,39.038,55.867,55.867,0,0,1-22.862.447,48.112,48.112,0,0,1-8.491-2.315c-.151-.055-.306-.116-.459-.174a60.364,60.364,0,0,1-14.329-7.843c-.866-.635-1.74-1.316-2.617-2.029-1.142-.928-2.289-1.917-3.44-2.986l.112-.079a56.072,56.072,0,0,1,3.631-82.6,76.106,76.106,0,0,0-16.5,9.986,62.026,62.026,0,0,0,3.625,71.132,55.678,55.678,0,0,1-17.55-17.311,52.142,52.142,0,0,0,9.846,19.233,62.405,62.405,0,0,0,20.114,10.06,62.346,62.346,0,0,0,28.275,11.311A55.756,55.756,0,0,1,1142.8,2799.485Zm81.906-73.964a62.294,62.294,0,0,0-9.961-26.191,57.99,57.99,0,0,0-13.27-6.453,55.764,55.764,0,0,1,10.374,13.053,62.225,62.225,0,0,0-36.263-18.224,55.711,55.711,0,0,1,21.492,1.486c.114.086.229.17.342.257a58.689,58.689,0,0,1,12.368,4.9c.877.473,1.649.92,2.312,1.325a31.993,31.993,0,0,1,2.888,1.951,56.045,56.045,0,0,1-.173,91.474,62.045,62.045,0,0,0,9.892-63.583Z" transform="translate(-1101.304 -2671.905)" fill="#fff"/></svg>