<svg xmlns="http://www.w3.org/2000/svg" width="140.478" height="140.478" viewBox="0 0 140.478 140.478"><path d="M1183.349,1476.8a70.635,70.635,0,0,0-1.283-12.058,69.46,69.46,0,0,0-11.968-27.572c-1.284-1.777-2.667-3.515-4.107-5.157-1.458-1.669-3.016-3.287-4.626-4.807-.441-.418-.9-.838-1.354-1.247-.4-.357-.808-.717-1.219-1.068a69.874,69.874,0,0,0-33.329-15.791c-2.041-.362-4.116-.635-6.162-.812s-4.109-.268-6.174-.268a70.125,70.125,0,0,0-47.3,18.311c-1.664,1.514-3.28,3.136-4.8,4.819a70.2,70.2,0,0,0-14.793,25.627c-.244.757-.451,1.442-.635,2.093a69.151,69.151,0,0,0-1.636,7.074,70.486,70.486,0,0,0-1.072,11.546c0,.256,0,.513,0,.768,0,2.221.1,4.46.312,6.657a69.708,69.708,0,0,0,5.676,21.762c.551,1.247,1.153,2.5,1.789,3.738a70.289,70.289,0,0,0,13.652,18.35c1.611,1.56,3.321,3.062,5.082,4.46a69.959,69.959,0,0,0,6.657,4.7c.184.115.368.23.549.34,1.362.831,2.766,1.623,4.173,2.354l.083.043.159.081c.23.118.458.234.689.348,1.621.817,3.318,1.586,5.044,2.285.948.384,1.909.749,2.851,1.082a69.824,69.824,0,0,0,18.578,3.867c1.62.115,3.284.172,4.945.172a70.063,70.063,0,0,0,22.131-3.56c1.725-.569,3.473-1.227,5.194-1.954,1.4-.592,2.789-1.232,4.121-1.9l.174-.088c.191-.1.383-.193.572-.292.323-.165.645-.334.973-.512,1.176-.63,2.327-1.292,3.423-1.964.155-.094.308-.19.462-.286q.424-.263.844-.532c1.775-1.137,3.522-2.373,5.192-3.672a70.549,70.549,0,0,0,21.559-27.961c.5-1.17.961-2.341,1.373-3.481.339-.922.668-1.886.975-2.863a70.265,70.265,0,0,0,3.247-21.171C1183.365,1477.739,1183.36,1477.259,1183.349,1476.8Zm-10.866,26.72a64.776,64.776,0,0,1-19.8,25.679c-.921.717-1.87,1.409-2.831,2.076l-1.136-3.641-.079-.193c-3.414-8.523-9.738-12.665-19.337-12.665-.47,0-.951.011-1.44.03-.366.015-.738.036-1.113.064l-.02,0-2.18.2-1.594-4.664a31.635,31.635,0,0,0,19.147-17.579,169.186,169.186,0,0,0,20.6-6.049,4.935,4.935,0,0,0,4.332,1.29c2.4,4.005,4.641,8.125,6.694,12.308C1173.352,1501.4,1172.936,1502.458,1172.483,1503.517Zm-116.46,4.736c2.448-4.344,5.106-8.61,7.922-12.7q.425-.618.856-1.231a5.118,5.118,0,0,0,.556.032,4.966,4.966,0,0,0,3.138-1.112,170.551,170.551,0,0,0,17.237,2.767,31.653,31.653,0,0,0,17.2,14.278l.23.479.017.033-1.489,4.27-2.26-.207,0,0c-.325-.023-.647-.038-.966-.05q-.631-.025-1.24-.025c-9.4,0-15.647,4.047-19.091,12.37-.021.048-.041.1-.06.145l-.075.185-1.474,3.879c-1.214-.838-2.405-1.714-3.556-2.632-1.617-1.285-3.186-2.662-4.664-4.095A64.552,64.552,0,0,1,1056.023,1508.253Zm87.948,22.843a2.687,2.687,0,0,1-.785,1.523q-.539.433-1.1.85a48.131,48.131,0,0,1-28.821,9.123c-11.064,0-21.45-3.409-29.332-9.612-.176-.138-.349-.278-.523-.419a2.744,2.744,0,0,1-.733-2.3,12.786,12.786,0,0,1,.505-1.768c.032-.086.063-.172.1-.259s.066-.171.1-.257.072-.169.109-.252c.1-.226.205-.45.317-.67.03-.06.062-.119.094-.178q.22-.417.47-.815c.068-.109.138-.214.209-.32.206-.307.423-.6.655-.892.045-.058.092-.115.139-.171q.222-.27.461-.526c.041-.044.082-.088.124-.132s.1-.106.153-.159l.154-.154q.331-.327.686-.629c.061-.052.121-.1.182-.151.121-.1.245-.2.372-.295.061-.048.125-.1.188-.142s.1-.075.154-.112q.21-.152.431-.295c.063-.042.127-.083.191-.124a13.226,13.226,0,0,1,1.8-.951c.06-.027.121-.053.182-.077.145-.06.291-.119.44-.174.07-.027.139-.053.21-.077.212-.076.425-.145.641-.21.133-.04.266-.078.4-.113.083-.021.167-.044.252-.064.053-.014.106-.027.16-.038q.152-.037.3-.068c.066-.014.134-.027.2-.039.357-.068.719-.123,1.083-.162l.2-.019c.183-.017.365-.03.549-.04.1,0,.2-.006.3-.006s.205,0,.308,0h.305a4.644,4.644,0,0,0,.5-.021,14.147,14.147,0,0,1,1.475-.087,7.6,7.6,0,0,1,.966.059c2,.254,3.274,1.371,4.288,3.664a9.793,9.793,0,0,0,5.7,5.436,12.278,12.278,0,0,0,4.22.7c.495,0,1.005-.026,1.518-.078a13.372,13.372,0,0,0,1.338-.2c3.9-.789,6.817-3.284,8.674-7.425a4.665,4.665,0,0,0,.219-.6c.036-.113.073-.226.113-.338.064-.175.475-1.28.475-1.28l.1,0c.661.04,1.335.062,2,.08l.7.016a32.306,32.306,0,0,1,5.941.5,12.169,12.169,0,0,1,9.341,7.956,16.569,16.569,0,0,1,.608,2.018A1.947,1.947,0,0,1,1143.971,1531.1Zm-30.845-24.1c-.182,0-.367,0-.549-.007a21.136,21.136,0,0,1-20.592-20.442,26.178,26.178,0,0,0,30.5-19.68,21.183,21.183,0,0,1,11.308,23.476,20.846,20.846,0,0,1-1.484,4.394,21.178,21.178,0,0,1-18.62,12.252C1113.506,1506.989,1113.316,1506.992,1113.126,1506.992Zm26.125-22.049a26.126,26.126,0,0,0-17.725-23.866,2.644,2.644,0,0,0-3.475,2.211,21.176,21.176,0,0,1-27.5,17.743,2.633,2.633,0,0,0-2.263.307,2.662,2.662,0,0,0-.813.844,2.633,2.633,0,0,0-.367,1.111c-.051.544-.088,1.1-.1,1.651a26.46,26.46,0,0,1,6.038-21.721,26.7,26.7,0,0,1,7.449-6.019,26.5,26.5,0,0,1,38.763,27.74Zm-21.017,26.8c.535,1.2,1.114,2.506,1.705,3.841l.249.562c.059,2.49-.3,5.067-3.01,6.931a6.739,6.739,0,0,1-3.835,1.276,6.823,6.823,0,0,1-3.569-1.077c-3.268-1.993-3.421-5.106-3.282-8.022l.523-1.2,1.01-2.313.072-.164a31.566,31.566,0,0,0,5.028.405c.4,0,.8-.012,1.19-.03a31.55,31.55,0,0,0,3.842-.381Zm-34.552-20.079q-6.723-.827-13.339-2.2c0-.034.005-.067.005-.1a4.973,4.973,0,0,0-.408-1.976c2.484-3.178,5.093-6.286,7.8-9.275q2.338-2.586,4.79-5.08a31.571,31.571,0,0,0,1.153,18.63Zm77.467-8.669a165.337,165.337,0,0,1-17.507,5.282A31.5,31.5,0,0,0,1113.126,1449c-.292,0-.583,0-.873.012q5.094-3.235,10.418-6.09a4.962,4.962,0,0,0,5.268.444c2.483,1.984,4.92,4.045,7.278,6.161a166.242,166.242,0,0,1,14.2,14.379c3.421,3.9,6.706,8.024,9.763,12.255q1.468,2.032,2.879,4.115A4.959,4.959,0,0,0,1161.15,1482.99Zm-32.187-47.8a4.967,4.967,0,0,0-5.823-.57,170.647,170.647,0,0,0-30.7-17.467,64.148,64.148,0,0,1,20.69-3.393c1.9,0,3.807.083,5.676.246s3.784.412,5.658.745a64.035,64.035,0,0,1,27.132,11.734A170.372,170.372,0,0,0,1128.962,1435.194Zm-80.329,43.061c0-.231,0-.464,0-.7a64.659,64.659,0,0,1,.984-10.611,63.216,63.216,0,0,1,1.5-6.491l0-.017c.165-.586.354-1.208.577-1.9A64.45,64.45,0,0,1,1065.29,1435c1.4-1.546,2.88-3.034,4.409-4.426a64.637,64.637,0,0,1,17.287-11.294,166.5,166.5,0,0,1,33.779,18.661,5.03,5.03,0,0,0-.1.986c0,.144.009.285.021.425a170.437,170.437,0,0,0-18.738,11.693l0,0a31.671,31.671,0,0,0-15.224,12.3c-.109.1-.219.2-.328.3-4.049,3.684-7.981,7.629-11.683,11.726-2.7,2.981-5.306,6.079-7.791,9.247a4.976,4.976,0,0,0-6.06,2.586c-4.051-1.09-8.069-2.34-12.013-3.731C1048.708,1481.745,1048.633,1479.995,1048.633,1478.256Zm12.177,13.157a5.013,5.013,0,0,0,.469.82q-.35.5-.7,1c-2.35,3.413-4.591,6.947-6.7,10.545a63.91,63.91,0,0,1-4.523-15.809C1053.131,1489.252,1056.959,1490.4,1060.81,1491.413Zm109.586-5.668a4.961,4.961,0,0,0,.714-2.284c2.183-.929,4.345-1.9,6.467-2.914a64.493,64.493,0,0,1-2.1,14.249Q1173.076,1490.2,1170.4,1485.745Zm-.726-6.108a4.961,4.961,0,0,0-4.086-1.438c-1.007-1.491-2.04-2.971-3.092-4.428-3.132-4.335-6.5-8.56-10-12.554a170.283,170.283,0,0,0-14.549-14.73c-2.415-2.166-4.912-4.278-7.456-6.311a4.982,4.982,0,0,0,.164-1.247v-.017a166.122,166.122,0,0,1,24.808-9.31c.242.21.482.421.716.631.42.376.837.76,1.244,1.146,1.48,1.4,2.908,2.88,4.248,4.415,1.326,1.512,2.595,3.106,3.774,4.738a63.753,63.753,0,0,1,10.987,25.307,64.892,64.892,0,0,1,1.15,10.179C1175,1477.28,1172.354,1478.493,1169.67,1479.637Z" transform="translate(-1042.887 -1408.017)" fill="#fff"/></svg>