<svg xmlns="http://www.w3.org/2000/svg" viewBox="0 0 64.98 64.98"><defs><style>.cls-1{fill:#fff;}.cls-2{fill:#853580;}</style></defs><g id="Layer_2" data-name="Layer 2"><g id="Layer_1-2" data-name="Layer 1"><circle class="cls-1" cx="32.49" cy="32.49" r="32.49"/><path class="cls-2" d="M46.66,34.74l-5.19,0c1,3.12,5.1,8.51-1.41,8.22-11-.5-9.2.7-11.32-4.76-1-2.64-2-5-3-7.55-4.05-10-4.76-8.21,8.28-8.29,2.51,0,2.72-1.16,4.82,6.05l5.76-.34c-.76-2.25-2.27-5.32-3.29-7.56-1.47-3.22-1.56-4.69-5.85-4.76-6.93-.11-14.31-.46-21.2-.24,1,2.32,2.07,5.61,3,8.13,1,2.74,2,5.43,3,8.18,7.24,19.45,4.21,17.5,16.05,17.5,12.43,0,16.7,1.57,13.45-6.57C48.73,40.32,47.41,37.24,46.66,34.74Z"/></g></g></svg>