<svg xmlns="http://www.w3.org/2000/svg" viewBox="0 0 229.66 59.95"><defs><style>.cls-1,.cls-2{fill:#853580;}.cls-1{fill-rule:evenodd;}.cls-3{fill:#8bc53f;}</style></defs><g id="Layer_2" data-name="Layer 2"><g id="Layer_1-2" data-name="Layer 1"><path class="cls-1" d="M125.88,17.93l5.43,0L129,13.7a1.16,1.16,0,0,1,1-1.81l6.15,0,.9,2.2c.31.84.3.86-.54.88h-3.21c-.37,0-.22.69.06,1.16l1,1.78,5.91,0,.88,2.45c.33,1-.79,1.1-2,1.13l-11.35,0-2-3.56ZM136.87,0,147,28.27H129.3a2.76,2.76,0,0,1-2.76-1.5l-3.2-8.36h-6.81l3.7,9.83c1.69,5.19,3.6,8.28,7,8.24h26.39c2.38-.11,2.92-1.8.33-8.19L143.67,0Zm70.35,18.41,3.72,9.86H207.5l-3.78-9.86h-6.8l3.71,9.86h-22l-3.77-9.86h-6.81l3.71,9.86H161c-1.52,0-2.74-1.48-3.88-2.72L159.28,32c.59,2.48,2.29,4.64,5.1,4.5h63.39c3.08,0,1.8-5.47.35-8.2l-3.78-9.87h-6.81l3.71,9.86H217.8L214,18.41Z"/><path class="cls-2" d="M29.29,23,24.6,23c.9,2.83,4.61,7.69-1.27,7.42-9.89-.44-8.3.64-10.21-4.29-.92-2.38-1.85-4.56-2.76-6.82-3.66-9-4.29-7.41,7.48-7.48,2.26,0,2.45-1,4.35,5.46l5.2-.31c-.69-2-2.05-4.8-3-6.82C23.1,7.27,23,5.94,19.14,5.88,12.88,5.78,6.22,5.47,0,5.66.94,7.76,1.87,10.73,2.7,13c.91,2.47,1.8,4.9,2.72,7.38C12,38,9.22,36.19,19.91,36.19c11.23,0,15.08,1.42,12.14-5.93C31.16,28,30,25.24,29.29,23Z"/><polygon class="cls-2" points="26.9 5.67 38.75 35.93 43.73 35.89 32.4 5.63 26.9 5.67"/><path class="cls-2" d="M66.61,10.72c-1.11-3-3.13-4.53-7.08-4.58C52,6.05,44,5.69,36.45,5.94l11.89,30.5c3,0,21.83,0,23.25-.38,3.57-.88,2.6-5.22,1.48-8.24Zm.07,19.14-15,.36-6.91-18c3.14-.3,7.09-.16,10.32-.23,7.69-.17,6.29.06,10.49,10.13C66.5,24.15,68.71,28,66.68,29.86Z"/><path class="cls-2" d="M108,23l-4.69,0c.9,2.83,4.61,7.69-1.27,7.42-9.89-.44-8.31.64-10.21-4.29-6.46-16.7-8.69-14.22,4.72-14.3,2.26,0,2.45-1,4.35,5.46L106.1,17c-.68-2-2-4.8-3-6.82-1.33-2.91-1.41-4.24-5.29-4.3-6.25-.1-12.92-.41-19.13-.22l5.42,14.72C90.68,38,87.94,36.19,98.63,36.19c3.33,0,6.79.09,10.11,0C114.92,36,109.88,29.18,108,23Z"/><polygon class="cls-2" points="68.85 5.68 80.69 35.93 85.68 35.89 74.35 5.63 68.85 5.68"/><path class="cls-3" d="M16.32,54.81a5.05,5.05,0,0,1-1.42,3.62A4.46,4.46,0,0,1,11.5,60a4.51,4.51,0,0,1-3.41-1.52,5.11,5.11,0,0,1-1.42-3.64L6.6,51.08h2c0,1.4,0,2.66,0,3.75A3.12,3.12,0,0,0,9.42,57a2.77,2.77,0,0,0,4.14,0,3.15,3.15,0,0,0,.87-2.24l-.09-3.73h1.95Zm-4-5.46H10.53V47.51H12.3Z"/><path class="cls-3" d="M22.89,56H20.66a1.82,1.82,0,0,1-1.3-.53,2.15,2.15,0,0,1-.62-1.62l0-9.63h1.93l.07,8.86c0,.66.33,1.15.84,1.15h1.36Z"/><path class="cls-3" d="M31.34,56h-1.8a1.77,1.77,0,0,1-1.4-.7,2.5,2.5,0,0,1-.46-.78A2.4,2.4,0,0,1,25.42,56H22.55V54.21H24.7a1.61,1.61,0,0,0,.94-.29,1.08,1.08,0,0,0,.57-1l0-3.61h1.91c0,.68,0,1.62.06,2.84a2.06,2.06,0,0,0,.56,1.53,1.31,1.31,0,0,0,1,.51h1.64V56ZM28,47.88H26.21V46H28Z"/><path class="cls-3" d="M35.22,54.21V56H31V54.21Z"/><path class="cls-3" d="M48.6,53.25c0,1.94-.87,3-2.6,3a2.48,2.48,0,0,1-2.43-1.44,2.36,2.36,0,0,1-2.33,1.44,2.51,2.51,0,0,1-2.13-.95V56H34.87l0-1.77h2.33c0-2.46,0-3.89,0-4.35H39.1v2.71a2,2,0,0,0,.52,1.3,1.58,1.58,0,0,0,1.19.49c.74,0,1.11-.42,1.11-1.24,0-.26,0-1.35,0-3.26h1.91c0,.51,0,1.33,0,2.48a2.16,2.16,0,0,0,.53,1.53,1.54,1.54,0,0,0,1.18.49c.75,0,1.11-.4,1.11-1.22,0,0,0-1.2,0-3.81h1.93Z"/><path class="cls-3" d="M53.62,43.09H50.38l.42-.89h.78a1.08,1.08,0,0,1-.16-.57,1.23,1.23,0,0,1,1.2-1.29,1.19,1.19,0,0,1,1,.51l-.44.67a.65.65,0,0,0-.49-.23c-.22,0-.33.14-.33.41s.24.5.69.5h.6ZM53.06,56H51.15L51.06,44.2H53Z"/><path class="cls-3" d="M66.29,52.52H58.36V50.81h7.93Z"/><path class="cls-3" d="M70.17,58.42A4,4,0,0,0,73,57.34a3.69,3.69,0,0,0,1.21-2.86l0-5.15h2l0,5a5.82,5.82,0,0,1-1.31,3.92,4.71,4.71,0,0,1-3.44,1.73C71.1,59.56,70.7,59.05,70.17,58.42Z"/><path class="cls-3" d="M75.81,58.42a3.87,3.87,0,0,0,4-3.94V49.33h1.93v3a1.9,1.9,0,0,0,1.58,1.84h2V56h-1.9a1.91,1.91,0,0,1-1.69-1.13A5.14,5.14,0,0,1,77,59.93C76.74,59.56,76.34,59.05,75.81,58.42ZM81.6,47.86H79.84V46H81.6Z"/><path class="cls-3" d="M89.19,54.21V56H85V54.21Z"/><path class="cls-3" d="M97.46,56H95.84a1.77,1.77,0,0,1-1.4-.7A2.5,2.5,0,0,1,94,54.5,2.4,2.4,0,0,1,91.72,56H88.85V54.21H91a1.61,1.61,0,0,0,.94-.29,1.08,1.08,0,0,0,.57-1l0-3.61h1.91c0,.68,0,1.62.06,2.84A2.06,2.06,0,0,0,95,53.7a1.31,1.31,0,0,0,1,.51h1.46V56ZM92.6,58.74H90.83V56.91H92.6Zm2.62,0H93.47V56.91h1.75Z"/><path class="cls-3" d="M101.5,53.61A2.21,2.21,0,0,1,99,56H97.11V54.21h1.24A1.17,1.17,0,0,0,99.59,53c0-1.12,0-2.58,0-4.36,0-2,0-3.5,0-4.39h1.91c0,.84,0,2.4,0,4.71C101.48,50.88,101.5,52.44,101.5,53.61Z"/><path class="cls-3" d="M114.74,52.52H106.8V50.81h7.94Z"/><path class="cls-3" d="M129,56h-2.58a1.72,1.72,0,0,1-1.93-2h-2.28c-1.43,0-2.16-.87-2.16-2.64a3.48,3.48,0,0,1,.93-2.62,2.33,2.33,0,0,1,1.69-.75,2.13,2.13,0,0,1,1.76.8h0v-.65h1.91l0,5.15c0,.6.26.91.75.91H129Zm-5.88-9.47h-1.74V44.67h1.74Zm1.37,5.73,0-1.49a1.52,1.52,0,0,0-1.31-.84c-.84,0-1.22.5-1.16,1.46a.8.8,0,0,0,.89.87Zm1.27-5.73h-1.74V44.67h1.74Z"/><path class="cls-3" d="M130.41,58.74h-1.77V56.91h1.77ZM134,53.61A2.2,2.2,0,0,1,131.56,56H128.7V54.21h2.15A1.16,1.16,0,0,0,132.08,53c0-.71,0-1.31,0-1.8,0-.74,0-1.36,0-1.82H134C134,52.21,134,53.63,134,53.61Zm-1,5.13h-1.75V56.91H133Z"/><path class="cls-3" d="M146.59,56H136.18l.91-1.77h5.06a3.82,3.82,0,0,0-1.06-2.4,2.14,2.14,0,0,0-1.47-.75V49.33a4,4,0,0,1,3,1.2,6.25,6.25,0,0,1,1.51,3.68h2.47Z"/><path class="cls-3" d="M154,56h-1.53a2.07,2.07,0,0,1-1.84-1.48A2.45,2.45,0,0,1,148.3,56h-2.05V54.21h1.33a1.42,1.42,0,0,0,1.51-1.27L149,44.16h1.92c0,1.35.07,7.47.09,8a1.9,1.9,0,0,0,1.56,2H154Z"/><path class="cls-3" d="M163.54,56h-10V54.19h8Q161,51,158.43,51a3.81,3.81,0,0,0-2.43.62l-.74-1.49a4.75,4.75,0,0,1,3.22-1,4.42,4.42,0,0,1,4,2.22A8.94,8.94,0,0,1,163.54,56Zm-3.88,2.76h-1.74V56.91h1.74Z"/><path class="cls-3" d="M176.78,52.52h-7.94V50.81h7.94Z"/><path class="cls-3" d="M182.13,51.08H184l0,2c0,2.62-.11,2.9.87,4A2.72,2.72,0,0,0,187,58,3.1,3.1,0,0,0,190,54.79L189.83,44h1.95l.05,8.54a1.73,1.73,0,0,0,1.57,1.67H195v1.31a4.3,4.3,0,0,1,0,.46h-1.54a1.91,1.91,0,0,1-1.66-1.08,4.83,4.83,0,1,1-9.65-.11C182.2,54.68,182.13,51.08,182.13,51.08Z"/><path class="cls-3" d="M203.3,56h-1.62a1.77,1.77,0,0,1-1.4-.7,2.5,2.5,0,0,1-.46-.78A2.39,2.39,0,0,1,197.57,56h-2.88V54.21h2.15a1.61,1.61,0,0,0,.94-.29,1.08,1.08,0,0,0,.57-1l0-3.61h1.91c0,.68,0,1.62.06,2.84a2.06,2.06,0,0,0,.56,1.53,1.31,1.31,0,0,0,1,.51h1.46V56Zm-4.86,2.76h-1.77V56.91h1.77Zm2.62,0h-1.75V56.91h1.75Z"/><path class="cls-3" d="M212.88,56H211a3,3,0,0,1-2.95,1.65,3.2,3.2,0,0,1-3-1.65H203V54.21h1.62a3.14,3.14,0,0,1,3.34-3.42,3.28,3.28,0,0,1,2.56,1.07,3.38,3.38,0,0,1,.91,2.35h1.5Zm-3.41-1.77a2,2,0,0,0-.47-1.36,1.31,1.31,0,0,0-1-.46,1.23,1.23,0,0,0-1,.46,2.07,2.07,0,0,0-.42,1.36,2,2,0,0,0,.48,1.38,1.29,1.29,0,0,0,1,.46C208.87,56.05,209.47,55.39,209.47,54.21Z"/><path class="cls-3" d="M224.16,56H212.55V54.21h8C220.18,52,219.12,51,217.37,51a3.77,3.77,0,0,0-2.42.62l-.75-1.49a4.77,4.77,0,0,1,3.23-1,4.33,4.33,0,0,1,3.51,1.55,6.71,6.71,0,0,1,1.44,3.51h1.78Zm-5.55,2.76h-1.75V56.91h1.75Z"/><path class="cls-3" d="M229.11,53.61A2.19,2.19,0,0,1,226.67,56h-2.85V54.21H226A1.17,1.17,0,0,0,227.2,53c0-.71,0-1.31,0-1.8,0-.74,0-1.36,0-1.82h1.93C229.1,52.21,229.11,53.63,229.11,53.61Zm-2.78-5.75h-1.75V46h1.75Zm2.64,0h-1.75V46H229Z"/></g></g></svg>