<svg xmlns="http://www.w3.org/2000/svg" width="324.658" height="145.383" viewBox="0 0 324.658 145.383"><g transform="translate(-113.5 0.448)"><path d="M113.5-.448v80.03a65.544,65.544,0,0,0,65.352,65.352h0A65.544,65.544,0,0,0,244.2,79.582V-.448Z" fill="#fff"/><g transform="translate(135.709 34.83)"><path d="M187.371,48a43.371,43.371,0,1,0,43.371,43.371A43.371,43.371,0,0,0,187.371,48Zm4.487,66.994a5.806,5.806,0,0,0-8.439-2.644,74.206,74.206,0,0,1-8.221-8.142,100.718,100.718,0,0,1-6.262-8.353,5.8,5.8,0,0,0,1.085-6.417,74.486,74.486,0,0,1,9.441-7.043,98.93,98.93,0,0,1,11.694-6.07,5.8,5.8,0,0,0,8.578.226c17.493,10.755,24.323,22.466,25.879,25.5a39.424,39.424,0,0,1-1.445,4.234C210.881,113.359,196.736,114.729,191.858,114.994ZM157.944,64.727c13.617-.3,25.873,4.027,31.92,6.608a5.868,5.868,0,0,0-.123,1.194c0,.185.009.367.026.548a84.675,84.675,0,0,0-9.773,4.963,90.144,90.144,0,0,0-12.355,8.776,5.814,5.814,0,0,0-4.328-.6c-4.9-9.832-6.125-17.313-6.429-20.266Q157.4,65.328,157.944,64.727Zm4.279,32.353a5.782,5.782,0,0,0,2.515.572,5.856,5.856,0,0,0,1.073-.1c1.485,2.238,3.143,4.509,5,6.783a90.284,90.284,0,0,0,9.955,10.392,76.567,76.567,0,0,1-26.6-6.732A69.9,69.9,0,0,1,162.223,97.08Zm64.421.1a79.966,79.966,0,0,0-25.351-23.817,5.848,5.848,0,0,0,.059-.737c10.421-3.012,17.586-2.715,19.527-2.555a39.516,39.516,0,0,1,6.19,21.295A39.957,39.957,0,0,1,226.644,97.185ZM218.4,66.616a73.318,73.318,0,0,0-18,2.731,5.8,5.8,0,0,0-8.845-1.033A81.594,81.594,0,0,0,161.7,61.094a39.692,39.692,0,0,1,56.7,5.522ZM154.069,69.76a76.294,76.294,0,0,0,6.291,18.275,5.8,5.8,0,0,0-.749,6.537,67.757,67.757,0,0,0-8.682,11.744c-.155-.088-.305-.174-.449-.258a39.757,39.757,0,0,1,3.589-36.3ZM153,111.252a77.626,77.626,0,0,0,27.8,7.046,5.8,5.8,0,0,0,9.227,3.587,70.657,70.657,0,0,0,11.853,6.449A39.742,39.742,0,0,1,153,111.252ZM206.438,126.2a68.615,68.615,0,0,1-14.356-7.293c.047-.159.089-.321.122-.486a81.311,81.311,0,0,0,29.163-6.538A39.893,39.893,0,0,1,206.438,126.2Z" transform="translate(-144 -48)" fill="#22b8a3"/><g transform="translate(134.039 12.012)"><g transform="translate(0.008)"><path d="M330.2,78.191a4.052,4.052,0,0,1-1.621-2.229,12.778,12.778,0,0,1-.492-3.907,12.8,12.8,0,0,1,.492-3.9,4.075,4.075,0,0,1,1.611-2.238,5.474,5.474,0,0,1,3.03-.733,19.611,19.611,0,0,1,3.724.386l.656.116-.058,1.235a25.333,25.333,0,0,0-4.148-.406,4.07,4.07,0,0,0-2.286.55,2.93,2.93,0,0,0-1.148,1.736,16.294,16.294,0,0,0,0,6.5,2.993,2.993,0,0,0,1.139,1.746,3.967,3.967,0,0,0,2.277.56,15.292,15.292,0,0,0,2.759-.27v-4.11h-2.219V71.9H337.6v6.561a23.471,23.471,0,0,1-4.341.463A5.56,5.56,0,0,1,330.2,78.191Z" transform="translate(-328.091 -64.684)" fill="#fff"/><path d="M344.944,64.762h1.447V78.616h-1.447Z" transform="translate(-332.672 -64.569)" fill="#fff"/><path d="M351.816,79.8a2.841,2.841,0,0,1-1.293-1.592,10.816,10.816,0,0,1,.02-5.8,2.927,2.927,0,0,1,1.312-1.621,4.9,4.9,0,0,1,2.412-.511,4.815,4.815,0,0,1,2.421.521,2.986,2.986,0,0,1,1.3,1.621,10.771,10.771,0,0,1,.019,5.788,2.854,2.854,0,0,1-1.282,1.592,6.145,6.145,0,0,1-4.911,0Zm4.09-1.1a1.9,1.9,0,0,0,.781-1.138,8.512,8.512,0,0,0,.222-2.209,8.893,8.893,0,0,0-.232-2.316,1.906,1.906,0,0,0-.791-1.158,3.054,3.054,0,0,0-1.6-.347,3.107,3.107,0,0,0-1.611.347,1.923,1.923,0,0,0-.81,1.158,11.144,11.144,0,0,0-.02,4.515,1.887,1.887,0,0,0,.792,1.148,3.125,3.125,0,0,0,1.65.357A3.026,3.026,0,0,0,355.906,78.7Z" transform="translate(-334.084 -66.067)" fill="#fff"/><path d="M365.225,78.655l-.54-.058V64.762h1.428v4.689a7.139,7.139,0,0,1,2.932-.675,3.565,3.565,0,0,1,2.007.492,2.823,2.823,0,0,1,1.071,1.573,10.013,10.013,0,0,1,.338,2.894,8.723,8.723,0,0,1-.424,3.068,2.693,2.693,0,0,1-1.418,1.534,6.964,6.964,0,0,1-2.807.453A25.376,25.376,0,0,1,365.225,78.655Zm4.611-1.515a1.98,1.98,0,0,0,.907-1.187,7.987,7.987,0,0,0,.25-2.257,8.587,8.587,0,0,0-.212-2.152,1.942,1.942,0,0,0-.7-1.129,2.327,2.327,0,0,0-1.36-.347,7.922,7.922,0,0,0-2.6.559V77.42q1.388.1,1.852.1A3.813,3.813,0,0,0,369.837,77.14Z" transform="translate(-338.039 -64.569)" fill="#fff"/><path d="M378.443,79.554a3.072,3.072,0,0,1-.695-2.16,2.74,2.74,0,0,1,.7-2.065A3.723,3.723,0,0,1,380.7,74.5l3.029-.29V73.38q0-1.833-1.582-1.833a35.093,35.093,0,0,0-3.8.25l-.058-1.1a18.8,18.8,0,0,1,3.762-.425,2.683,2.683,0,0,1,3.126,3.106v4.939q.057.714,1.118.849l-.057,1.139a3.116,3.116,0,0,1-2.3-.772,8.412,8.412,0,0,1-3.473.772A2.621,2.621,0,0,1,378.443,79.554Zm4.843-.907.443-.154V75.31l-2.856.27a1.856,1.856,0,0,0-1.254.5,1.774,1.774,0,0,0-.386,1.235q0,1.776,1.467,1.775A7.93,7.93,0,0,0,383.286,78.648Z" transform="translate(-341.59 -66.067)" fill="#fff"/><path d="M392,64.762h1.447V78.616H392Z" transform="translate(-345.465 -64.569)" fill="#fff"/><path d="M405.307,78.162a3.845,3.845,0,0,1-1.505-2.229,15.024,15.024,0,0,1-.4-3.877,15.05,15.05,0,0,1,.4-3.869,3.9,3.9,0,0,1,1.476-2.238,5.265,5.265,0,0,1,3.078-.762,18.055,18.055,0,0,1,3.608.425l-.058,1.255a19.478,19.478,0,0,0-3.357-.348,3.97,3.97,0,0,0-2.277.54,2.789,2.789,0,0,0-1.051,1.737,16.283,16.283,0,0,0-.28,3.473,14.171,14.171,0,0,0,.26,3.077,2.717,2.717,0,0,0,1.071,1.678,4.277,4.277,0,0,0,2.45.569,17.711,17.711,0,0,0,3.183-.347l.058,1.273a17.836,17.836,0,0,1-3.512.406A5.487,5.487,0,0,1,405.307,78.162Z" transform="translate(-348.562 -64.684)" fill="#fff"/><path d="M418.96,79.8a2.843,2.843,0,0,1-1.292-1.592,8.669,8.669,0,0,1-.386-2.855,8.777,8.777,0,0,1,.4-2.942A2.93,2.93,0,0,1,419,70.785a4.9,4.9,0,0,1,2.412-.511,4.818,4.818,0,0,1,2.422.521,2.988,2.988,0,0,1,1.3,1.621,10.782,10.782,0,0,1,.02,5.788,2.858,2.858,0,0,1-1.283,1.592,6.145,6.145,0,0,1-4.911,0Zm4.091-1.1a1.9,1.9,0,0,0,.781-1.138,8.519,8.519,0,0,0,.221-2.209,8.9,8.9,0,0,0-.231-2.316,1.907,1.907,0,0,0-.792-1.158,3.05,3.05,0,0,0-1.6-.347,3.107,3.107,0,0,0-1.611.347,1.929,1.929,0,0,0-.81,1.158,11.125,11.125,0,0,0-.019,4.515,1.886,1.886,0,0,0,.791,1.148,3.125,3.125,0,0,0,1.65.357A3.03,3.03,0,0,0,423.051,78.7Z" transform="translate(-352.337 -66.067)" fill="#fff"/><path d="M431.829,70.467h1.428v.675a7.115,7.115,0,0,1,1.592-.675,5.842,5.842,0,0,1,1.515-.193,3.353,3.353,0,0,1,1.91.463,2.513,2.513,0,0,1,.955,1.476,11.033,11.033,0,0,1,.28,2.807v5.094H438.08V75.059a10.254,10.254,0,0,0-.164-2.1,1.775,1.775,0,0,0-.588-1.061,1.987,1.987,0,0,0-1.235-.328,5.782,5.782,0,0,0-1.341.164,5.257,5.257,0,0,0-1.11.376l-.367.173v7.834h-1.447Z" transform="translate(-356.291 -66.067)" fill="#fff"/><path d="M446.134,70.15h-1.215V68.9h1.215v-.869a7.1,7.1,0,0,1,.251-2.132,1.834,1.834,0,0,1,.81-1.081,3.135,3.135,0,0,1,1.543-.318l1.949.135-.019,1.2-1.5-.049c-.186-.007-.305-.009-.357-.009a.971.971,0,0,0-.974.579,4.309,4.309,0,0,0-.261,1.7V68.9h2.8V70.15h-2.8v8.393h-1.447Z" transform="translate(-359.85 -64.497)" fill="#fff"/><path d="M454.871,79.159a5.785,5.785,0,0,1-.916-3.618,6.55,6.55,0,0,1,.984-3.974,4.32,4.32,0,0,1,5.972-.184,5.123,5.123,0,0,1,.955,3.406l-.077,1.1h-6.367a5.378,5.378,0,0,0,.26,1.871,1.722,1.722,0,0,0,.888.974,4.135,4.135,0,0,0,1.746.3q.559,0,1.292-.029t1.332-.087l.559-.058L461.537,80a25.824,25.824,0,0,1-3.55.309A3.769,3.769,0,0,1,454.871,79.159Zm5.547-4.428a4.257,4.257,0,0,0-.559-2.5,2.147,2.147,0,0,0-1.833-.743,2.391,2.391,0,0,0-1.968.781,3.946,3.946,0,0,0-.656,2.46Z" transform="translate(-362.306 -66.067)" fill="#fff"/><path d="M467.893,70.46h1.427v1.312a9.643,9.643,0,0,1,3.532-1.525v1.467a11.765,11.765,0,0,0-1.631.473,12.32,12.32,0,0,0-1.4.588l-.482.251v7.081h-1.447Z" transform="translate(-366.095 -66.06)" fill="#fff"/><path d="M477.1,79.159a5.784,5.784,0,0,1-.917-3.618,6.55,6.55,0,0,1,.984-3.974,4.32,4.32,0,0,1,5.972-.184,5.128,5.128,0,0,1,.955,3.406l-.076,1.1h-6.368a5.375,5.375,0,0,0,.261,1.871,1.719,1.719,0,0,0,.888.974,4.135,4.135,0,0,0,1.746.3q.559,0,1.293-.029t1.332-.087l.559-.058L483.769,80a25.833,25.833,0,0,1-3.551.309A3.767,3.767,0,0,1,477.1,79.159Zm5.547-4.428a4.257,4.257,0,0,0-.559-2.5,2.149,2.149,0,0,0-1.833-.743,2.39,2.39,0,0,0-1.967.781,3.946,3.946,0,0,0-.656,2.46Z" transform="translate(-368.349 -66.067)" fill="#fff"/><path d="M490.124,70.467h1.428v.675a7.116,7.116,0,0,1,1.592-.675,5.838,5.838,0,0,1,1.515-.193,3.353,3.353,0,0,1,1.91.463,2.514,2.514,0,0,1,.955,1.476,11.033,11.033,0,0,1,.28,2.807v5.094h-1.428V75.059a10.257,10.257,0,0,0-.164-2.1,1.775,1.775,0,0,0-.588-1.061,1.987,1.987,0,0,0-1.235-.328,5.782,5.782,0,0,0-1.341.164,5.257,5.257,0,0,0-1.11.376l-.367.173v7.834h-1.447Z" transform="translate(-372.138 -66.067)" fill="#fff"/><path d="M505.352,79.788a2.836,2.836,0,0,1-1.216-1.6,9.375,9.375,0,0,1-.366-2.9,7.459,7.459,0,0,1,.772-3.666,3.125,3.125,0,0,1,2.991-1.37q.579,0,1.2.058t1.678.25l-.057,1.177a22.447,22.447,0,0,0-2.335-.173,3.439,3.439,0,0,0-1.689.338,1.852,1.852,0,0,0-.829,1.138,8.311,8.311,0,0,0-.242,2.286,8.077,8.077,0,0,0,.232,2.19,1.872,1.872,0,0,0,.84,1.138,3.534,3.534,0,0,0,1.766.357l2.276-.173.058,1.2a21.18,21.18,0,0,1-2.779.27A4.433,4.433,0,0,1,505.352,79.788Z" transform="translate(-375.848 -66.06)" fill="#fff"/><path d="M516.028,79.159a5.78,5.78,0,0,1-.917-3.618,6.55,6.55,0,0,1,.984-3.974,4.319,4.319,0,0,1,5.971-.184,5.124,5.124,0,0,1,.955,3.406l-.077,1.1h-6.367a5.36,5.36,0,0,0,.261,1.871,1.717,1.717,0,0,0,.888.974,4.132,4.132,0,0,0,1.745.3q.56,0,1.293-.029t1.331-.087l.56-.058L522.694,80a25.843,25.843,0,0,1-3.551.309A3.766,3.766,0,0,1,516.028,79.159Zm5.547-4.428a4.25,4.25,0,0,0-.56-2.5,2.147,2.147,0,0,0-1.833-.743,2.392,2.392,0,0,0-1.968.781,3.946,3.946,0,0,0-.655,2.46Z" transform="translate(-378.931 -66.067)" fill="#fff"/><path d="M535.947,79.8a2.841,2.841,0,0,1-1.293-1.592,10.835,10.835,0,0,1,.02-5.8,2.927,2.927,0,0,1,1.312-1.621,4.9,4.9,0,0,1,2.412-.511,4.82,4.82,0,0,1,2.422.521,2.988,2.988,0,0,1,1.3,1.621,10.772,10.772,0,0,1,.019,5.788,2.854,2.854,0,0,1-1.282,1.592,6.145,6.145,0,0,1-4.911,0Zm4.091-1.1a1.9,1.9,0,0,0,.781-1.138,8.553,8.553,0,0,0,.221-2.209,8.893,8.893,0,0,0-.232-2.316,1.906,1.906,0,0,0-.791-1.158,3.054,3.054,0,0,0-1.6-.347,3.107,3.107,0,0,0-1.611.347,1.929,1.929,0,0,0-.81,1.158,11.145,11.145,0,0,0-.02,4.515,1.887,1.887,0,0,0,.792,1.148,3.125,3.125,0,0,0,1.65.357A3.03,3.03,0,0,0,540.038,78.7Z" transform="translate(-384.139 -66.067)" fill="#fff"/><path d="M548.816,70.467h1.428v.675a7.1,7.1,0,0,1,1.592-.675,5.837,5.837,0,0,1,1.515-.193,3.353,3.353,0,0,1,1.91.463,2.517,2.517,0,0,1,.955,1.476,11.036,11.036,0,0,1,.28,2.807v5.094h-1.428V75.059a10.252,10.252,0,0,0-.164-2.1,1.774,1.774,0,0,0-.588-1.061,1.987,1.987,0,0,0-1.235-.328,5.792,5.792,0,0,0-1.341.164,5.264,5.264,0,0,0-1.109.376l-.367.173v7.834h-1.447Z" transform="translate(-388.093 -66.067)" fill="#fff"/></g><g transform="translate(0 24.501)"><path d="M336.222,109.017h-5.711l-.965,3.435H328.08L331.746,99.1h3.241l3.666,13.352h-1.467Zm-5.383-1.331h5.055l-2.026-7.313h-1Z" transform="translate(-328.08 -98.404)" fill="#fff"/><path d="M345.543,104.108h1.427v1.312A9.638,9.638,0,0,1,350.5,103.9v1.466a11.768,11.768,0,0,0-1.63.473,11.952,11.952,0,0,0-1.4.588l-.482.25v7.081h-1.447Z" transform="translate(-332.827 -99.708)" fill="#fff"/><path d="M356.317,112.626a1.811,1.811,0,0,1-.791-1.081,7.368,7.368,0,0,1-.241-2.131v-5.075h-1.37v-1.254h1.37v-2.952h1.428v2.952h3.068v1.254h-3.068v4.611a12.186,12.186,0,0,0,.077,1.611,1.139,1.139,0,0,0,1.312,1.09l1.717-.116.1,1.2a14.8,14.8,0,0,1-2.064.213A3.077,3.077,0,0,1,356.317,112.626Z" transform="translate(-335.103 -98.685)" fill="#fff"/><path d="M364.806,98.887h1.428v1.679h-1.428Zm0,3.859h1.428v9.647h-1.428Z" transform="translate(-338.064 -98.347)" fill="#fff"/><path d="M371.082,103.8h-1.215v-1.254h1.215v-.868a7.1,7.1,0,0,1,.251-2.132,1.83,1.83,0,0,1,.81-1.081,3.131,3.131,0,0,1,1.543-.319l1.949.135-.02,1.2-1.495-.048c-.186-.007-.306-.01-.357-.01a.97.97,0,0,0-.974.579,4.3,4.3,0,0,0-.261,1.7v.849h2.8V103.8h-2.8v8.393h-1.448Z" transform="translate(-339.439 -98.145)" fill="#fff"/><path d="M380.148,98.887h1.428v1.679h-1.428Zm0,3.859h1.428v9.647h-1.428Z" transform="translate(-342.234 -98.347)" fill="#fff"/><path d="M387.188,113.437a2.834,2.834,0,0,1-1.215-1.6,9.346,9.346,0,0,1-.367-2.9,7.473,7.473,0,0,1,.772-3.666,3.126,3.126,0,0,1,2.991-1.37q.579,0,1.2.058t1.679.25l-.058,1.177a22.273,22.273,0,0,0-2.334-.174,3.439,3.439,0,0,0-1.689.338,1.859,1.859,0,0,0-.829,1.138,8.351,8.351,0,0,0-.241,2.286,8.075,8.075,0,0,0,.232,2.19,1.867,1.867,0,0,0,.839,1.138,3.535,3.535,0,0,0,1.766.358l2.277-.174.058,1.2a21.179,21.179,0,0,1-2.779.27A4.433,4.433,0,0,1,387.188,113.437Z" transform="translate(-343.718 -99.708)" fill="#fff"/><path d="M398.113,98.887h1.428v1.679h-1.428Zm0,3.859h1.428v9.647h-1.428Z" transform="translate(-347.118 -98.347)" fill="#fff"/><path d="M404.134,113.2a3.074,3.074,0,0,1-.695-2.161,2.74,2.74,0,0,1,.7-2.065,3.732,3.732,0,0,1,2.248-.829l3.029-.289v-.83q0-1.833-1.582-1.833a35.1,35.1,0,0,0-3.8.25l-.057-1.1a18.85,18.85,0,0,1,3.762-.425,2.683,2.683,0,0,1,3.126,3.106v4.94q.057.713,1.118.849l-.058,1.138a3.113,3.113,0,0,1-2.3-.772,8.4,8.4,0,0,1-3.473.772A2.62,2.62,0,0,1,404.134,113.2Zm4.843-.907.443-.154v-3.184l-2.856.27a1.86,1.86,0,0,0-1.254.5,1.774,1.774,0,0,0-.386,1.235q0,1.775,1.466,1.775A7.911,7.911,0,0,0,408.977,112.3Z" transform="translate(-348.566 -99.715)" fill="#fff"/><path d="M418.119,98.411h1.447v13.853h-1.447Z" transform="translate(-352.556 -98.217)" fill="#fff"/><path d="M431.048,99.1h1.486v13.352h-1.486Z" transform="translate(-356.071 -98.404)" fill="#fff"/><path d="M437.62,104.115h1.428v.675a7.151,7.151,0,0,1,1.592-.675,5.874,5.874,0,0,1,1.515-.193,3.353,3.353,0,0,1,1.91.463,2.516,2.516,0,0,1,.955,1.476,11.039,11.039,0,0,1,.28,2.808v5.093h-1.428v-5.056a10.257,10.257,0,0,0-.164-2.1,1.777,1.777,0,0,0-.588-1.061,1.992,1.992,0,0,0-1.235-.328,5.744,5.744,0,0,0-1.341.165,5.26,5.26,0,0,0-1.11.376l-.367.174v7.834H437.62Z" transform="translate(-357.858 -99.715)" fill="#fff"/><path d="M453.377,112.626a1.809,1.809,0,0,1-.791-1.081,7.368,7.368,0,0,1-.241-2.131v-5.075h-1.37v-1.254h1.37v-2.952h1.428v2.952h3.068v1.254h-3.068v4.611a12.192,12.192,0,0,0,.077,1.611,1.14,1.14,0,0,0,1.312,1.09l1.717-.116.1,1.2a14.817,14.817,0,0,1-2.065.213A3.072,3.072,0,0,1,453.377,112.626Z" transform="translate(-361.488 -98.685)" fill="#fff"/><path d="M462.2,112.807a5.781,5.781,0,0,1-.916-3.617,6.553,6.553,0,0,1,.984-3.975,4.319,4.319,0,0,1,5.972-.183,5.127,5.127,0,0,1,.955,3.406l-.077,1.1h-6.368a5.375,5.375,0,0,0,.261,1.871,1.72,1.72,0,0,0,.888.974,4.124,4.124,0,0,0,1.746.3q.559,0,1.292-.029t1.332-.087l.559-.058.039,1.138a25.824,25.824,0,0,1-3.55.309A3.766,3.766,0,0,1,462.2,112.807Zm5.547-4.428a4.252,4.252,0,0,0-.559-2.5,2.148,2.148,0,0,0-1.833-.743,2.389,2.389,0,0,0-1.968.782,3.942,3.942,0,0,0-.656,2.46Z" transform="translate(-364.29 -99.715)" fill="#fff"/><path d="M475.8,98.411h1.448v13.853H475.8Z" transform="translate(-368.237 -98.217)" fill="#fff"/><path d="M482.322,98.411h1.447v13.853h-1.447Z" transform="translate(-370.009 -98.217)" fill="#fff"/><path d="M488.68,98.887h1.428v1.679H488.68Zm0,3.859h1.428v9.647H488.68Z" transform="translate(-371.738 -98.347)" fill="#fff"/><path d="M494.93,117.65a2.471,2.471,0,0,1-.9-2.151,2.979,2.979,0,0,1,.145-1.013,1.92,1.92,0,0,1,.453-.7,10.836,10.836,0,0,1,.926-.791,1.043,1.043,0,0,1-.4-.521,2,2,0,0,1-.135-.733,1.541,1.541,0,0,1,.116-.55,10.138,10.138,0,0,1,.54-1.051,2.824,2.824,0,0,1-1.524-2.894,3.2,3.2,0,0,1,.907-2.5,3.976,3.976,0,0,1,2.74-.82,8.761,8.761,0,0,1,1.968.251l2.856-.078v1.235l-1.833-.039a2,2,0,0,1,.483.8,3.963,3.963,0,0,1,.154,1.206,3.015,3.015,0,0,1-.888,2.451,4.363,4.363,0,0,1-2.8.733,5.146,5.146,0,0,1-.984-.077q-.154.387-.251.676a1.61,1.61,0,0,0-.1.5.63.63,0,0,0,.4.656,3.608,3.608,0,0,0,1.225.154h.753a8.851,8.851,0,0,1,2.055.193,2.025,2.025,0,0,1,1.206.781,2.9,2.9,0,0,1,.425,1.708,2.846,2.846,0,0,1-1.042,2.45,5.892,5.892,0,0,1-3.435.772A5.413,5.413,0,0,1,494.93,117.65Zm5.431-1a2.1,2.1,0,0,0,.425-2.431,1.113,1.113,0,0,0-.714-.435,6.905,6.905,0,0,0-1.447-.116l-2.084-.1a3.414,3.414,0,0,0-.859.81,1.7,1.7,0,0,0-.221.926,1.537,1.537,0,0,0,.588,1.389,4.019,4.019,0,0,0,2.074.386A4.184,4.184,0,0,0,500.361,116.647Zm-.888-7.8a2.213,2.213,0,0,0,.5-1.64,2.185,2.185,0,0,0-.5-1.621,2.344,2.344,0,0,0-1.659-.482,2.421,2.421,0,0,0-1.708.492,2.193,2.193,0,0,0-.511,1.63,2.156,2.156,0,0,0,.511,1.621,2.418,2.418,0,0,0,1.689.483A2.378,2.378,0,0,0,499.474,108.842Z" transform="translate(-373.193 -99.715)" fill="#fff"/><path d="M508.967,112.807a5.781,5.781,0,0,1-.916-3.617,6.553,6.553,0,0,1,.984-3.975,4.319,4.319,0,0,1,5.972-.183,5.128,5.128,0,0,1,.955,3.406l-.077,1.1h-6.368a5.375,5.375,0,0,0,.261,1.871,1.72,1.72,0,0,0,.888.974,4.124,4.124,0,0,0,1.746.3q.559,0,1.293-.029t1.332-.087l.559-.058.039,1.138a25.823,25.823,0,0,1-3.55.309A3.766,3.766,0,0,1,508.967,112.807Zm5.547-4.428a4.252,4.252,0,0,0-.559-2.5,2.148,2.148,0,0,0-1.833-.743,2.389,2.389,0,0,0-1.968.782,3.942,3.942,0,0,0-.656,2.46Z" transform="translate(-377.004 -99.715)" fill="#fff"/><path d="M522.412,104.115h1.428v.675a7.15,7.15,0,0,1,1.592-.675,5.87,5.87,0,0,1,1.515-.193,3.353,3.353,0,0,1,1.91.463,2.519,2.519,0,0,1,.955,1.476,11.039,11.039,0,0,1,.28,2.808v5.093h-1.428v-5.056a10.257,10.257,0,0,0-.164-2.1,1.777,1.777,0,0,0-.588-1.061,1.992,1.992,0,0,0-1.235-.328,5.755,5.755,0,0,0-1.341.165,5.268,5.268,0,0,0-1.109.376l-.367.174v7.834h-1.447Z" transform="translate(-380.908 -99.715)" fill="#fff"/><path d="M538.064,113.437a2.838,2.838,0,0,1-1.216-1.6,9.372,9.372,0,0,1-.366-2.9,7.464,7.464,0,0,1,.772-3.666,3.126,3.126,0,0,1,2.991-1.37q.579,0,1.2.058t1.678.25l-.057,1.177a22.286,22.286,0,0,0-2.334-.174,3.437,3.437,0,0,0-1.689.338,1.86,1.86,0,0,0-.83,1.138,8.349,8.349,0,0,0-.241,2.286,8.077,8.077,0,0,0,.232,2.19,1.868,1.868,0,0,0,.84,1.138,3.532,3.532,0,0,0,1.765.358l2.277-.174.058,1.2a21.179,21.179,0,0,1-2.779.27A4.433,4.433,0,0,1,538.064,113.437Z" transform="translate(-384.732 -99.708)" fill="#fff"/><path d="M549.164,112.807a5.781,5.781,0,0,1-.917-3.617,6.552,6.552,0,0,1,.984-3.975,4.319,4.319,0,0,1,5.972-.183,5.127,5.127,0,0,1,.955,3.406l-.077,1.1h-6.367a5.358,5.358,0,0,0,.261,1.871,1.715,1.715,0,0,0,.888.974,4.122,4.122,0,0,0,1.746.3q.559,0,1.292-.029t1.331-.087l.56-.058.039,1.138a25.833,25.833,0,0,1-3.551.309A3.765,3.765,0,0,1,549.164,112.807Zm5.547-4.428a4.253,4.253,0,0,0-.559-2.5,2.149,2.149,0,0,0-1.833-.743,2.388,2.388,0,0,0-1.968.782,3.942,3.942,0,0,0-.656,2.46Z" transform="translate(-387.931 -99.715)" fill="#fff"/></g><g transform="translate(0.004 48.078)"><path d="M329.176,143.915a4.022,4.022,0,0,1-1.09-3.048,3.937,3.937,0,0,1,.714-2.538,4.7,4.7,0,0,1,2.276-1.379,4.484,4.484,0,0,1-.839-1.255,3.585,3.585,0,0,1-.261-1.408,2.871,2.871,0,0,1,.878-2.277,3.666,3.666,0,0,1,2.5-.772,3.6,3.6,0,0,1,2.479.753,2.826,2.826,0,0,1,.84,2.219,3.116,3.116,0,0,1-.676,2.064,6.424,6.424,0,0,1-2.3,1.544l2.933,2.894a11.864,11.864,0,0,0,.54-3.126l1.408.02a15.575,15.575,0,0,1-.888,4.013l2.49,2.354-.869.965-2.334-2.18a4.4,4.4,0,0,1-1.785,1.717,5.851,5.851,0,0,1-2.518.483A4.945,4.945,0,0,1,329.176,143.915Zm5.538-.7a2.948,2.948,0,0,0,1.264-1.3l-4.071-4.052a3.778,3.778,0,0,0-1.8,1.033,2.8,2.8,0,0,0-.55,1.862,2.83,2.83,0,0,0,.772,2.18,3.334,3.334,0,0,0,2.334.714A4.355,4.355,0,0,0,334.714,143.211Zm-.019-7.389a2.108,2.108,0,0,0,.53-1.5,1.646,1.646,0,0,0-1.89-1.833q-1.91,0-1.911,1.794a3.015,3.015,0,0,0,.869,2.123l.559.54A5.533,5.533,0,0,0,334.695,135.822Z" transform="translate(-328.086 -130.718)" fill="#fff"/><path d="M354.5,131.478h1.486v13.352H354.5Z" transform="translate(-335.268 -130.783)" fill="#fff"/><path d="M361.287,136.494h1.428v.675a7.117,7.117,0,0,1,1.592-.675,5.848,5.848,0,0,1,1.515-.194,3.349,3.349,0,0,1,1.91.464,2.518,2.518,0,0,1,.955,1.476,11.068,11.068,0,0,1,.28,2.807v5.093h-1.428v-5.055a10.193,10.193,0,0,0-.165-2.1,1.775,1.775,0,0,0-.588-1.062,1.988,1.988,0,0,0-1.234-.328,5.749,5.749,0,0,0-1.341.164,5.286,5.286,0,0,0-1.11.376l-.366.173v7.834h-1.448Z" transform="translate(-337.111 -132.094)" fill="#fff"/><path d="M377.256,145a1.811,1.811,0,0,1-.792-1.081,7.4,7.4,0,0,1-.241-2.132v-5.075h-1.37v-1.254h1.37v-2.953h1.428v2.953h3.068v1.254h-3.068v4.611a12.179,12.179,0,0,0,.077,1.611,1.141,1.141,0,0,0,1.312,1.091l1.718-.116.1,1.2a14.81,14.81,0,0,1-2.065.213A3.084,3.084,0,0,1,377.256,145Z" transform="translate(-340.8 -131.064)" fill="#fff"/><path d="M386.29,145.186a5.785,5.785,0,0,1-.916-3.618,6.549,6.549,0,0,1,.984-3.974,4.318,4.318,0,0,1,5.972-.184,5.127,5.127,0,0,1,.955,3.406l-.077,1.1H386.84a5.368,5.368,0,0,0,.261,1.871,1.723,1.723,0,0,0,.888.975,4.136,4.136,0,0,0,1.746.3q.559,0,1.292-.029t1.332-.087l.559-.058.039,1.138a25.725,25.725,0,0,1-3.55.309A3.769,3.769,0,0,1,386.29,145.186Zm5.547-4.429a4.253,4.253,0,0,0-.559-2.5,2.147,2.147,0,0,0-1.833-.743,2.389,2.389,0,0,0-1.968.781,3.945,3.945,0,0,0-.656,2.46Z" transform="translate(-343.659 -132.094)" fill="#fff"/><path d="M399.947,136.487h1.428V137.8a9.638,9.638,0,0,1,3.531-1.524v1.467a11.757,11.757,0,0,0-1.63.473,12.082,12.082,0,0,0-1.4.588l-.482.251v7.081h-1.448Z" transform="translate(-347.621 -132.087)" fill="#fff"/><path d="M409.725,136.494h1.428v.675a7.118,7.118,0,0,1,1.592-.675,5.838,5.838,0,0,1,1.515-.194,3.347,3.347,0,0,1,1.91.464,2.514,2.514,0,0,1,.955,1.476,11.03,11.03,0,0,1,.28,2.807v5.093h-1.428v-5.055a10.252,10.252,0,0,0-.164-2.1,1.779,1.779,0,0,0-.588-1.062,1.992,1.992,0,0,0-1.235-.328,5.754,5.754,0,0,0-1.341.164,5.265,5.265,0,0,0-1.109.376l-.367.173v7.834h-1.447Z" transform="translate(-350.279 -132.094)" fill="#fff"/><path d="M424.9,145.186a5.785,5.785,0,0,1-.916-3.618,6.549,6.549,0,0,1,.984-3.974,4.318,4.318,0,0,1,5.972-.184,5.127,5.127,0,0,1,.955,3.406l-.077,1.1h-6.368a5.37,5.37,0,0,0,.261,1.871,1.723,1.723,0,0,0,.888.975,4.136,4.136,0,0,0,1.746.3q.559,0,1.292-.029t1.332-.087l.559-.058.039,1.138a25.734,25.734,0,0,1-3.551.309A3.768,3.768,0,0,1,424.9,145.186Zm5.547-4.429a4.252,4.252,0,0,0-.559-2.5,2.147,2.147,0,0,0-1.833-.743,2.389,2.389,0,0,0-1.968.781,3.945,3.945,0,0,0-.656,2.46Z" transform="translate(-354.154 -132.094)" fill="#fff"/><path d="M439.685,145a1.811,1.811,0,0,1-.792-1.081,7.376,7.376,0,0,1-.241-2.132v-5.075h-1.37v-1.254h1.37v-2.953h1.428v2.953h3.068v1.254h-3.068v4.611a12.178,12.178,0,0,0,.077,1.611,1.141,1.141,0,0,0,1.312,1.091l1.717-.116.1,1.2a14.819,14.819,0,0,1-2.065.213A3.08,3.08,0,0,1,439.685,145Z" transform="translate(-357.77 -131.064)" fill="#fff"/><path d="M455.919,145.822a2.843,2.843,0,0,1-1.292-1.592,8.672,8.672,0,0,1-.386-2.856,8.779,8.779,0,0,1,.4-2.942,2.935,2.935,0,0,1,1.312-1.621,4.91,4.91,0,0,1,2.412-.511,4.819,4.819,0,0,1,2.422.521,2.988,2.988,0,0,1,1.3,1.621,10.781,10.781,0,0,1,.02,5.788,2.86,2.86,0,0,1-1.283,1.592,6.145,6.145,0,0,1-4.911,0Zm4.091-1.1a1.9,1.9,0,0,0,.781-1.138,8.519,8.519,0,0,0,.221-2.21,8.891,8.891,0,0,0-.231-2.315,1.907,1.907,0,0,0-.792-1.158,3.05,3.05,0,0,0-1.6-.347,3.107,3.107,0,0,0-1.611.347,1.929,1.929,0,0,0-.81,1.158,11.122,11.122,0,0,0-.019,4.515,1.883,1.883,0,0,0,.791,1.148,3.125,3.125,0,0,0,1.65.357A3.03,3.03,0,0,0,460.01,144.723Z" transform="translate(-362.38 -132.094)" fill="#fff"/><path d="M469.527,136.177h-1.216v-1.254h1.216v-.869a7.105,7.105,0,0,1,.25-2.132,1.832,1.832,0,0,1,.81-1.081,3.14,3.14,0,0,1,1.544-.318l1.949.135-.019,1.2-1.5-.048c-.186-.007-.306-.009-.357-.009a.97.97,0,0,0-.974.578,4.3,4.3,0,0,0-.261,1.7v.849h2.8v1.254h-2.8v8.393h-1.447Z" transform="translate(-366.205 -130.524)" fill="#fff"/><path d="M487.79,132.809h-4.11v-1.331h9.647v1.331h-4.071v12.02H487.79Z" transform="translate(-370.383 -130.783)" fill="#fff"/><path d="M499.79,130.789h1.447v4.746a8.853,8.853,0,0,1,1.573-.559,6.3,6.3,0,0,1,1.476-.174,3.5,3.5,0,0,1,1.939.454,2.46,2.46,0,0,1,.965,1.476,11.16,11.16,0,0,1,.28,2.817v5.093h-1.447v-5.055a10.5,10.5,0,0,0-.164-2.152,1.615,1.615,0,0,0-.617-1.032,2.394,2.394,0,0,0-1.341-.309,6.6,6.6,0,0,0-2.3.443l-.367.135v7.968H499.79Z" transform="translate(-374.762 -130.596)" fill="#fff"/><path d="M514.629,131.266h1.427v1.678h-1.427Zm0,3.859h1.427v9.647h-1.427Z" transform="translate(-378.796 -130.726)" fill="#fff"/><path d="M521.015,136.494h1.427v.675a7.109,7.109,0,0,1,1.592-.675,5.839,5.839,0,0,1,1.515-.194,3.349,3.349,0,0,1,1.91.464,2.518,2.518,0,0,1,.955,1.476,11.066,11.066,0,0,1,.28,2.807v5.093h-1.428v-5.055a10.191,10.191,0,0,0-.165-2.1,1.775,1.775,0,0,0-.588-1.062,1.988,1.988,0,0,0-1.234-.328,5.755,5.755,0,0,0-1.341.164,5.287,5.287,0,0,0-1.11.376l-.366.173v7.834h-1.447Z" transform="translate(-380.532 -132.094)" fill="#fff"/><path d="M536.167,150.029a2.47,2.47,0,0,1-.9-2.152,2.981,2.981,0,0,1,.145-1.013,1.908,1.908,0,0,1,.453-.7,10.453,10.453,0,0,1,.926-.791,1.042,1.042,0,0,1-.4-.521,2,2,0,0,1-.135-.733,1.537,1.537,0,0,1,.116-.55,9.779,9.779,0,0,1,.54-1.051,2.824,2.824,0,0,1-1.524-2.894,3.2,3.2,0,0,1,.907-2.5,3.973,3.973,0,0,1,2.74-.821,8.764,8.764,0,0,1,1.968.251l2.855-.077v1.235l-1.833-.039a1.991,1.991,0,0,1,.483.8,3.965,3.965,0,0,1,.154,1.206,3.012,3.012,0,0,1-.888,2.451,4.356,4.356,0,0,1-2.8.733,5.2,5.2,0,0,1-.984-.077q-.155.386-.25.675a1.614,1.614,0,0,0-.1.5.629.629,0,0,0,.4.656,3.608,3.608,0,0,0,1.225.154h.752a8.882,8.882,0,0,1,2.055.193,2.03,2.03,0,0,1,1.206.781,2.9,2.9,0,0,1,.424,1.708,2.85,2.85,0,0,1-1.041,2.451,5.892,5.892,0,0,1-3.435.771A5.413,5.413,0,0,1,536.167,150.029Zm5.431-1a2.106,2.106,0,0,0,.425-2.431,1.112,1.112,0,0,0-.714-.434,6.858,6.858,0,0,0-1.448-.116l-2.084-.1a3.409,3.409,0,0,0-.859.81,1.7,1.7,0,0,0-.222.926,1.535,1.535,0,0,0,.589,1.389,4.016,4.016,0,0,0,2.074.386A4.194,4.194,0,0,0,541.6,149.025Zm-.888-7.805a2.213,2.213,0,0,0,.5-1.64,2.185,2.185,0,0,0-.5-1.621,2.349,2.349,0,0,0-1.659-.482,2.417,2.417,0,0,0-1.708.492,2.191,2.191,0,0,0-.511,1.63,2.155,2.155,0,0,0,.511,1.62,2.417,2.417,0,0,0,1.689.483A2.378,2.378,0,0,0,540.711,141.22Z" transform="translate(-384.407 -132.094)" fill="#fff"/><path d="M550.081,146.071l-.579-.1.077-1.254a25.792,25.792,0,0,0,3.319.328,3.165,3.165,0,0,0,1.726-.376,1.339,1.339,0,0,0,.569-1.206,1.309,1.309,0,0,0-.28-.907,1.576,1.576,0,0,0-.714-.444,8.552,8.552,0,0,0-1.225-.25l-.483-.077a8.653,8.653,0,0,1-1.814-.463,2.1,2.1,0,0,1-.984-.762,2.432,2.432,0,0,1-.328-1.36,2.509,2.509,0,0,1,.945-2.219,4.666,4.666,0,0,1,2.682-.656,16.2,16.2,0,0,1,2.8.25l.54.1-.039,1.235a23.779,23.779,0,0,0-3.261-.309,3.183,3.183,0,0,0-1.669.347,1.188,1.188,0,0,0-.55,1.081,1.106,1.106,0,0,0,.27.8,1.552,1.552,0,0,0,.7.406,11.738,11.738,0,0,0,1.225.26l.482.1a8.907,8.907,0,0,1,1.852.492,2.03,2.03,0,0,1,.974.8,2.774,2.774,0,0,1,.319,1.448,2.737,2.737,0,0,1-.917,2.286,4.5,4.5,0,0,1-2.808.724A18.379,18.379,0,0,1,550.081,146.071Z" transform="translate(-388.24 -132.102)" fill="#fff"/></g></g></g></g></svg>